<?xml version="1.0" encoding="UTF-8" standalone="no"?>
<!DOCTYPE svg PUBLIC "-//W3C//DTD SVG 1.1//EN"
 "http://www.w3.org/Graphics/SVG/1.1/DTD/svg11.dtd">
<!-- Generated by graphviz version 2.43.0 (0)
 -->
<!-- Title: list Pages: 1 -->
<svg width="1163pt" height="790pt"
 viewBox="0.00 0.00 1162.85 789.83" xmlns="http://www.w3.org/2000/svg" xmlns:xlink="http://www.w3.org/1999/xlink">
<g id="graph0" class="graph" transform="scale(1 1) rotate(0) translate(4 785.83)">
<title>list</title>
<polygon fill="white" stroke="transparent" points="-4,4 -4,-785.83 1158.85,-785.83 1158.85,4 -4,4"/>
<!-- node_0x5583c27a1180 -->
<g id="node1" class="node">
<title>node_0x5583c27a1180</title>
<polygon fill="#cccccc" stroke="black" points="425.48,-752.02 452.48,-736.16 479.48,-752.02 479.46,-777.68 425.51,-777.68 425.48,-752.02"/>
<text text-anchor="middle" x="452.48" y="-755.31" font-family="Times,serif" font-size="16.00">;</text>
</g>
<!-- node_0x5583c27a1150 -->
<g id="node2" class="node">
<title>node_0x5583c27a1150</title>
<polygon fill="#ccccff" stroke="black" points="364.85,-676.82 452.48,-664.38 540.12,-676.82 540.04,-696.95 364.93,-696.95 364.85,-676.82"/>
<text text-anchor="middle" x="452.48" y="-678.68" font-family="Times,serif" font-size="14.00">FUNC_DECL</text>
</g>
<!-- node_0x5583c27a1180&#45;&gt;node_0x5583c27a1150 -->
<g id="edge1" class="edge">
<title>node_0x5583c27a1180&#45;&gt;node_0x5583c27a1150</title>
<path fill="none" stroke="black" d="M452.48,-736.09C452.48,-727.06 452.48,-716.57 452.48,-707.35"/>
<polygon fill="black" stroke="black" points="455.98,-707.25 452.48,-697.25 448.98,-707.25 455.98,-707.25"/>
</g>
<!-- node_0x5583c27a0c10 -->
<g id="node3" class="node">
<title>node_0x5583c27a0c10</title>
<polygon fill="#ccccff" stroke="black" points="302.17,-600.1 387.48,-587.66 472.8,-600.1 472.72,-620.22 302.25,-620.22 302.17,-600.1"/>
<text text-anchor="middle" x="387.48" y="-601.96" font-family="Times,serif" font-size="14.00">FUNC_INFO</text>
</g>
<!-- node_0x5583c27a1150&#45;&gt;node_0x5583c27a0c10 -->
<g id="edge2" class="edge">
<title>node_0x5583c27a1150&#45;&gt;node_0x5583c27a0c10</title>
<path fill="none" stroke="black" d="M439.02,-665.9C429.59,-655.06 416.86,-640.44 406.42,-628.43"/>
<polygon fill="black" stroke="black" points="408.82,-625.86 399.62,-620.61 403.54,-630.45 408.82,-625.86"/>
</g>
<!-- node_0x5583c27a0c40 -->
<g id="node9" class="node">
<title>node_0x5583c27a0c40</title>
<polygon fill="#cccccc" stroke="black" points="490.48,-598.57 517.48,-582.71 544.48,-598.57 544.46,-624.23 490.51,-624.23 490.48,-598.57"/>
<text text-anchor="middle" x="517.48" y="-601.86" font-family="Times,serif" font-size="16.00">{</text>
</g>
<!-- node_0x5583c27a1150&#45;&gt;node_0x5583c27a0c40 -->
<g id="edge8" class="edge">
<title>node_0x5583c27a1150&#45;&gt;node_0x5583c27a0c40</title>
<path fill="none" stroke="black" d="M465.95,-665.9C474.39,-656.2 485.47,-643.46 495.19,-632.28"/>
<polygon fill="black" stroke="black" points="498.06,-634.33 501.98,-624.49 492.77,-629.73 498.06,-634.33"/>
</g>
<!-- node_0x5583c27a0b50 -->
<g id="node4" class="node">
<title>node_0x5583c27a0b50</title>
<polygon fill="#ccccff" stroke="black" points="125.29,-507.58 243.48,-495.14 361.68,-507.58 361.56,-527.7 125.4,-527.7 125.29,-507.58"/>
<text text-anchor="middle" x="243.48" y="-509.44" font-family="Times,serif" font-size="14.00">FUNC_ARG_DECL</text>
</g>
<!-- node_0x5583c27a0c10&#45;&gt;node_0x5583c27a0b50 -->
<g id="edge3" class="edge">
<title>node_0x5583c27a0c10&#45;&gt;node_0x5583c27a0b50</title>
<path fill="none" stroke="black" d="M365.3,-590.71C340.92,-575.39 301.58,-550.66 274.23,-533.47"/>
<polygon fill="black" stroke="black" points="275.79,-530.31 265.46,-527.95 272.06,-536.24 275.79,-530.31"/>
</g>
<!-- node_0x5583c27a0b20 -->
<g id="node8" class="node">
<title>node_0x5583c27a0b20</title>
<ellipse fill="#ccffff" stroke="black" cx="413.48" cy="-513.14" rx="33.6" ry="33.6"/>
<text text-anchor="middle" x="413.48" y="-509.44" font-family="Times,serif" font-size="14.00">main</text>
</g>
<!-- node_0x5583c27a0c10&#45;&gt;node_0x5583c27a0b20 -->
<g id="edge7" class="edge">
<title>node_0x5583c27a0c10&#45;&gt;node_0x5583c27a0b20</title>
<path fill="none" stroke="black" d="M392.25,-588.06C394.86,-578.98 398.22,-567.28 401.49,-555.89"/>
<polygon fill="black" stroke="black" points="404.93,-556.6 404.32,-546.02 398.2,-554.67 404.93,-556.6"/>
</g>
<!-- node_0x5583c27a0bb0 -->
<g id="node5" class="node">
<title>node_0x5583c27a0bb0</title>
<polygon fill="#ccccff" stroke="black" points="0.02,-415.05 67.48,-402.62 134.95,-415.05 134.89,-435.18 0.08,-435.18 0.02,-415.05"/>
<text text-anchor="middle" x="67.48" y="-416.92" font-family="Times,serif" font-size="14.00">VAR_DEF</text>
</g>
<!-- node_0x5583c27a0b50&#45;&gt;node_0x5583c27a0bb0 -->
<g id="edge4" class="edge">
<title>node_0x5583c27a0b50&#45;&gt;node_0x5583c27a0bb0</title>
<path fill="none" stroke="black" d="M215.98,-497.99C185.5,-482.31 136.23,-456.97 102.88,-439.82"/>
<polygon fill="black" stroke="black" points="104.42,-436.68 93.93,-435.22 101.22,-442.9 104.42,-436.68"/>
</g>
<!-- node_0x5583c27a0be0 -->
<g id="node7" class="node">
<title>node_0x5583c27a0be0</title>
<polygon fill="#ccccff" stroke="black" points="153.29,-415.05 271.48,-402.62 389.68,-415.05 389.56,-435.18 153.4,-435.18 153.29,-415.05"/>
<text text-anchor="middle" x="271.48" y="-416.92" font-family="Times,serif" font-size="14.00">FUNC_ARG_DECL</text>
</g>
<!-- node_0x5583c27a0b50&#45;&gt;node_0x5583c27a0be0 -->
<g id="edge6" class="edge">
<title>node_0x5583c27a0b50&#45;&gt;node_0x5583c27a0be0</title>
<path fill="none" stroke="black" d="M248.62,-495.53C253,-481.38 259.34,-460.88 264.23,-445.06"/>
<polygon fill="black" stroke="black" points="267.59,-446.04 267.21,-435.45 260.91,-443.97 267.59,-446.04"/>
</g>
<!-- node_0x5583c27a0b80 -->
<g id="node6" class="node">
<title>node_0x5583c27a0b80</title>
<ellipse fill="#ccffff" stroke="black" cx="67.48" cy="-339.17" rx="18" ry="18"/>
<text text-anchor="middle" x="67.48" y="-335.47" font-family="Times,serif" font-size="14.00">a</text>
</g>
<!-- node_0x5583c27a0bb0&#45;&gt;node_0x5583c27a0b80 -->
<g id="edge5" class="edge">
<title>node_0x5583c27a0bb0&#45;&gt;node_0x5583c27a0b80</title>
<path fill="none" stroke="black" d="M67.48,-402.38C67.48,-392.17 67.48,-379.02 67.48,-367.44"/>
<polygon fill="black" stroke="black" points="70.98,-367.37 67.48,-357.37 63.98,-367.37 70.98,-367.37"/>
</g>
<!-- node_0x5583c27a0d00 -->
<g id="node10" class="node">
<title>node_0x5583c27a0d00</title>
<polygon fill="#cccccc" stroke="black" points="490.48,-506.05 517.48,-490.19 544.48,-506.05 544.46,-531.71 490.51,-531.71 490.48,-506.05"/>
<text text-anchor="middle" x="517.48" y="-509.34" font-family="Times,serif" font-size="16.00">;</text>
</g>
<!-- node_0x5583c27a0c40&#45;&gt;node_0x5583c27a0d00 -->
<g id="edge9" class="edge">
<title>node_0x5583c27a0c40&#45;&gt;node_0x5583c27a0d00</title>
<path fill="none" stroke="black" d="M517.48,-582.75C517.48,-570.57 517.48,-555.28 517.48,-542.22"/>
<polygon fill="black" stroke="black" points="520.98,-541.9 517.48,-531.9 513.98,-541.9 520.98,-541.9"/>
</g>
<!-- node_0x5583c27a0cd0 -->
<g id="node11" class="node">
<title>node_0x5583c27a0cd0</title>
<polygon fill="#cccccc" stroke="black" points="462.48,-413.52 489.48,-397.66 516.48,-413.52 516.46,-439.18 462.51,-439.18 462.48,-413.52"/>
<text text-anchor="middle" x="489.48" y="-416.82" font-family="Times,serif" font-size="16.00">=</text>
</g>
<!-- node_0x5583c27a0d00&#45;&gt;node_0x5583c27a0cd0 -->
<g id="edge10" class="edge">
<title>node_0x5583c27a0d00&#45;&gt;node_0x5583c27a0cd0</title>
<path fill="none" stroke="black" d="M511.68,-493.38C507.74,-480.63 502.45,-463.55 498.03,-449.24"/>
<polygon fill="black" stroke="black" points="501.29,-447.94 494.99,-439.42 494.6,-450.01 501.29,-447.94"/>
</g>
<!-- node_0x5583c27a0d30 -->
<g id="node14" class="node">
<title>node_0x5583c27a0d30</title>
<polygon fill="#cccccc" stroke="black" points="534.48,-413.52 561.48,-397.66 588.48,-413.52 588.46,-439.18 534.51,-439.18 534.48,-413.52"/>
<text text-anchor="middle" x="561.48" y="-416.82" font-family="Times,serif" font-size="16.00">{</text>
</g>
<!-- node_0x5583c27a0d00&#45;&gt;node_0x5583c27a0d30 -->
<g id="edge13" class="edge">
<title>node_0x5583c27a0d00&#45;&gt;node_0x5583c27a0d30</title>
<path fill="none" stroke="black" d="M525.97,-494.68C532.32,-481.62 541.12,-463.51 548.37,-448.59"/>
<polygon fill="black" stroke="black" points="551.65,-449.85 552.88,-439.32 545.36,-446.79 551.65,-449.85"/>
</g>
<!-- node_0x5583c27a0c70 -->
<g id="node12" class="node">
<title>node_0x5583c27a0c70</title>
<ellipse fill="#ccffff" stroke="black" cx="437.48" cy="-339.17" rx="18" ry="18"/>
<text text-anchor="middle" x="437.48" y="-335.47" font-family="Times,serif" font-size="14.00">a</text>
</g>
<!-- node_0x5583c27a0cd0&#45;&gt;node_0x5583c27a0c70 -->
<g id="edge11" class="edge">
<title>node_0x5583c27a0cd0&#45;&gt;node_0x5583c27a0c70</title>
<path fill="none" stroke="black" d="M478.96,-403.54C471.34,-391.9 460.93,-375.99 452.45,-363.03"/>
<polygon fill="black" stroke="black" points="455.35,-361.07 446.94,-354.62 449.49,-364.9 455.35,-361.07"/>
</g>
<!-- node_0x5583c27a0ca0 -->
<g id="node13" class="node">
<title>node_0x5583c27a0ca0</title>
<ellipse fill="#ffffcc" stroke="black" cx="491.48" cy="-339.17" rx="18" ry="18"/>
<text text-anchor="middle" x="491.48" y="-335.47" font-family="Times,serif" font-size="14.00">5</text>
</g>
<!-- node_0x5583c27a0cd0&#45;&gt;node_0x5583c27a0ca0 -->
<g id="edge12" class="edge">
<title>node_0x5583c27a0cd0&#45;&gt;node_0x5583c27a0ca0</title>
<path fill="none" stroke="black" d="M490.03,-397.91C490.27,-388.53 490.54,-377.45 490.79,-367.51"/>
<polygon fill="black" stroke="black" points="494.3,-367.41 491.05,-357.32 487.3,-367.23 494.3,-367.41"/>
</g>
<!-- node_0x5583c27a0dc0 -->
<g id="node15" class="node">
<title>node_0x5583c27a0dc0</title>
<polygon fill="#cccccc" stroke="black" points="531.48,-332.07 558.48,-316.21 585.48,-332.07 585.46,-357.73 531.51,-357.73 531.48,-332.07"/>
<text text-anchor="middle" x="558.48" y="-335.37" font-family="Times,serif" font-size="16.00">;</text>
</g>
<!-- node_0x5583c27a0d30&#45;&gt;node_0x5583c27a0dc0 -->
<g id="edge14" class="edge">
<title>node_0x5583c27a0d30&#45;&gt;node_0x5583c27a0dc0</title>
<path fill="none" stroke="black" d="M560.66,-397.91C560.31,-388.66 559.9,-377.76 559.53,-367.94"/>
<polygon fill="black" stroke="black" points="563.03,-367.7 559.15,-357.84 556.03,-367.96 563.03,-367.7"/>
</g>
<!-- node_0x5583c27a0fa0 -->
<g id="node27" class="node">
<title>node_0x5583c27a0fa0</title>
<polygon fill="#cccccc" stroke="black" points="688.48,-332.07 715.48,-316.21 742.48,-332.07 742.46,-357.73 688.51,-357.73 688.48,-332.07"/>
<text text-anchor="middle" x="715.48" y="-335.37" font-family="Times,serif" font-size="16.00">{</text>
</g>
<!-- node_0x5583c27a0d30&#45;&gt;node_0x5583c27a0fa0 -->
<g id="edge26" class="edge">
<title>node_0x5583c27a0d30&#45;&gt;node_0x5583c27a0fa0</title>
<path fill="none" stroke="black" d="M581.62,-409.23C606.37,-396.46 648.83,-374.55 679.3,-358.83"/>
<polygon fill="black" stroke="black" points="681.06,-361.86 688.34,-354.17 677.85,-355.64 681.06,-361.86"/>
</g>
<!-- node_0x5583c27a0d90 -->
<g id="node16" class="node">
<title>node_0x5583c27a0d90</title>
<polygon fill="#ccccff" stroke="black" points="317.95,-252.15 404.48,-239.72 491.01,-252.15 490.93,-272.28 318.03,-272.28 317.95,-252.15"/>
<text text-anchor="middle" x="404.48" y="-254.02" font-family="Times,serif" font-size="14.00">ELEM_PUTC</text>
</g>
<!-- node_0x5583c27a0dc0&#45;&gt;node_0x5583c27a0d90 -->
<g id="edge15" class="edge">
<title>node_0x5583c27a0dc0&#45;&gt;node_0x5583c27a0d90</title>
<path fill="none" stroke="black" d="M539.01,-327.45C532.51,-323.9 525.2,-319.97 518.48,-316.44 492.87,-303.01 463.78,-288.28 441.39,-277.07"/>
<polygon fill="black" stroke="black" points="442.75,-273.83 432.24,-272.49 439.62,-280.1 442.75,-273.83"/>
</g>
<!-- node_0x5583c27a0e80 -->
<g id="node18" class="node">
<title>node_0x5583c27a0e80</title>
<polygon fill="#cccccc" stroke="black" points="531.48,-250.62 558.48,-234.76 585.48,-250.62 585.46,-276.29 531.51,-276.29 531.48,-250.62"/>
<text text-anchor="middle" x="558.48" y="-253.92" font-family="Times,serif" font-size="16.00">;</text>
</g>
<!-- node_0x5583c27a0dc0&#45;&gt;node_0x5583c27a0e80 -->
<g id="edge17" class="edge">
<title>node_0x5583c27a0dc0&#45;&gt;node_0x5583c27a0e80</title>
<path fill="none" stroke="black" d="M558.48,-316.04C558.48,-306.96 558.48,-296.35 558.48,-286.75"/>
<polygon fill="black" stroke="black" points="561.98,-286.46 558.48,-276.46 554.98,-286.46 561.98,-286.46"/>
</g>
<!-- node_0x5583c27a0d60 -->
<g id="node17" class="node">
<title>node_0x5583c27a0d60</title>
<ellipse fill="#ffffcc" stroke="black" cx="376.48" cy="-176.24" rx="23" ry="23"/>
<text text-anchor="middle" x="376.48" y="-172.54" font-family="Times,serif" font-size="14.00">88</text>
</g>
<!-- node_0x5583c27a0d90&#45;&gt;node_0x5583c27a0d60 -->
<g id="edge16" class="edge">
<title>node_0x5583c27a0d90&#45;&gt;node_0x5583c27a0d60</title>
<path fill="none" stroke="black" d="M398.68,-240.25C395.37,-230.85 391.11,-218.77 387.22,-207.71"/>
<polygon fill="black" stroke="black" points="390.4,-206.21 383.77,-197.94 383.8,-208.53 390.4,-206.21"/>
</g>
<!-- node_0x5583c27a0e20 -->
<g id="node19" class="node">
<title>node_0x5583c27a0e20</title>
<polygon fill="#ccccff" stroke="black" points="417.02,-170.68 484.48,-158.24 551.95,-170.68 551.89,-190.81 417.08,-190.81 417.02,-170.68"/>
<text text-anchor="middle" x="484.48" y="-172.54" font-family="Times,serif" font-size="14.00">VAR_DEF</text>
</g>
<!-- node_0x5583c27a0e80&#45;&gt;node_0x5583c27a0e20 -->
<g id="edge18" class="edge">
<title>node_0x5583c27a0e80&#45;&gt;node_0x5583c27a0e20</title>
<path fill="none" stroke="black" d="M545.25,-242.51C533.92,-230.34 517.44,-212.64 504.5,-198.74"/>
<polygon fill="black" stroke="black" points="506.73,-196 497.35,-191.06 501.6,-200.77 506.73,-196"/>
</g>
<!-- node_0x5583c27a0f10 -->
<g id="node22" class="node">
<title>node_0x5583c27a0f10</title>
<polygon fill="#cccccc" stroke="black" points="575.48,-169.15 602.48,-153.29 629.48,-169.15 629.46,-194.81 575.51,-194.81 575.48,-169.15"/>
<text text-anchor="middle" x="602.48" y="-172.44" font-family="Times,serif" font-size="16.00">;</text>
</g>
<!-- node_0x5583c27a0e80&#45;&gt;node_0x5583c27a0f10 -->
<g id="edge21" class="edge">
<title>node_0x5583c27a0e80&#45;&gt;node_0x5583c27a0f10</title>
<path fill="none" stroke="black" d="M567.81,-239.86C573.59,-229.44 581.12,-215.82 587.7,-203.95"/>
<polygon fill="black" stroke="black" points="590.93,-205.34 592.71,-194.9 584.8,-201.95 590.93,-205.34"/>
</g>
<!-- node_0x5583c27a0df0 -->
<g id="node20" class="node">
<title>node_0x5583c27a0df0</title>
<ellipse fill="#ccffff" stroke="black" cx="424.48" cy="-94.75" rx="18" ry="18"/>
<text text-anchor="middle" x="424.48" y="-91.05" font-family="Times,serif" font-size="14.00">a</text>
</g>
<!-- node_0x5583c27a0e20&#45;&gt;node_0x5583c27a0df0 -->
<g id="edge19" class="edge">
<title>node_0x5583c27a0e20&#45;&gt;node_0x5583c27a0df0</title>
<path fill="none" stroke="black" d="M473.2,-160.29C464.18,-148.34 451.39,-131.4 441.19,-117.88"/>
<polygon fill="black" stroke="black" points="443.73,-115.44 434.92,-109.57 438.15,-119.66 443.73,-115.44"/>
</g>
<!-- node_0x5583c27a0e50 -->
<g id="node21" class="node">
<title>node_0x5583c27a0e50</title>
<ellipse fill="#ffffcc" stroke="black" cx="478.48" cy="-94.75" rx="18" ry="18"/>
<text text-anchor="middle" x="478.48" y="-91.05" font-family="Times,serif" font-size="14.00">1</text>
</g>
<!-- node_0x5583c27a0e20&#45;&gt;node_0x5583c27a0e50 -->
<g id="edge20" class="edge">
<title>node_0x5583c27a0e20&#45;&gt;node_0x5583c27a0e50</title>
<path fill="none" stroke="black" d="M483.21,-158.38C482.44,-148.13 481.43,-134.78 480.54,-123.05"/>
<polygon fill="black" stroke="black" points="484.02,-122.56 479.77,-112.86 477.04,-123.09 484.02,-122.56"/>
</g>
<!-- node_0x5583c27a0ee0 -->
<g id="node23" class="node">
<title>node_0x5583c27a0ee0</title>
<polygon fill="#ccccff" stroke="black" points="514.24,-89.19 602.48,-76.75 690.73,-89.19 690.64,-109.31 514.32,-109.31 514.24,-89.19"/>
<text text-anchor="middle" x="602.48" y="-91.05" font-family="Times,serif" font-size="14.00">ELEM_PUTN</text>
</g>
<!-- node_0x5583c27a0f10&#45;&gt;node_0x5583c27a0ee0 -->
<g id="edge22" class="edge">
<title>node_0x5583c27a0f10&#45;&gt;node_0x5583c27a0ee0</title>
<path fill="none" stroke="black" d="M602.48,-153.1C602.48,-142.73 602.48,-130.37 602.48,-119.78"/>
<polygon fill="black" stroke="black" points="605.98,-119.54 602.48,-109.54 598.98,-119.54 605.98,-119.54"/>
</g>
<!-- node_0x5583c27a0f70 -->
<g id="node25" class="node">
<title>node_0x5583c27a0f70</title>
<polygon fill="#cccccc" stroke="black" points="708.48,-87.66 735.48,-71.8 762.48,-87.66 762.46,-113.32 708.51,-113.32 708.48,-87.66"/>
<text text-anchor="middle" x="735.48" y="-90.95" font-family="Times,serif" font-size="16.00">;</text>
</g>
<!-- node_0x5583c27a0f10&#45;&gt;node_0x5583c27a0f70 -->
<g id="edge24" class="edge">
<title>node_0x5583c27a0f10&#45;&gt;node_0x5583c27a0f70</title>
<path fill="none" stroke="black" d="M621.1,-164.21C640.64,-152.61 672.25,-133.83 699.48,-117.5 699.57,-117.44 699.66,-117.39 699.75,-117.33"/>
<polygon fill="black" stroke="black" points="701.6,-120.31 708.37,-112.15 697.99,-114.31 701.6,-120.31"/>
</g>
<!-- node_0x5583c27a0eb0 -->
<g id="node24" class="node">
<title>node_0x5583c27a0eb0</title>
<ellipse fill="#ccffff" stroke="black" cx="602.48" cy="-18" rx="18" ry="18"/>
<text text-anchor="middle" x="602.48" y="-14.3" font-family="Times,serif" font-size="14.00">a</text>
</g>
<!-- node_0x5583c27a0ee0&#45;&gt;node_0x5583c27a0eb0 -->
<g id="edge23" class="edge">
<title>node_0x5583c27a0ee0&#45;&gt;node_0x5583c27a0eb0</title>
<path fill="none" stroke="black" d="M602.48,-76.41C602.48,-67.54 602.48,-56.54 602.48,-46.54"/>
<polygon fill="black" stroke="black" points="605.98,-46.24 602.48,-36.24 598.98,-46.24 605.98,-46.24"/>
</g>
<!-- node_0x5583c27a0f40 -->
<g id="node26" class="node">
<title>node_0x5583c27a0f40</title>
<polygon fill="#ccccff" stroke="black" points="647.24,-12.44 735.48,0 823.73,-12.44 823.64,-32.56 647.32,-32.56 647.24,-12.44"/>
<text text-anchor="middle" x="735.48" y="-14.3" font-family="Times,serif" font-size="14.00">ELEM_PUTN</text>
</g>
<!-- node_0x5583c27a0f70&#45;&gt;node_0x5583c27a0f40 -->
<g id="edge25" class="edge">
<title>node_0x5583c27a0f70&#45;&gt;node_0x5583c27a0f40</title>
<path fill="none" stroke="black" d="M735.48,-71.73C735.48,-62.69 735.48,-52.2 735.48,-42.97"/>
<polygon fill="black" stroke="black" points="738.98,-42.87 735.48,-32.87 731.98,-42.87 738.98,-42.87"/>
</g>
<!-- node_0x5583c27a1030 -->
<g id="node28" class="node">
<title>node_0x5583c27a1030</title>
<polygon fill="#cccccc" stroke="black" points="775.48,-250.62 802.48,-234.76 829.48,-250.62 829.46,-276.29 775.51,-276.29 775.48,-250.62"/>
<text text-anchor="middle" x="802.48" y="-253.92" font-family="Times,serif" font-size="16.00">;</text>
</g>
<!-- node_0x5583c27a0fa0&#45;&gt;node_0x5583c27a1030 -->
<g id="edge27" class="edge">
<title>node_0x5583c27a0fa0&#45;&gt;node_0x5583c27a1030</title>
<path fill="none" stroke="black" d="M730.24,-324.69C742.63,-313.38 760.64,-296.93 775.58,-283.29"/>
<polygon fill="black" stroke="black" points="778.04,-285.78 783.06,-276.45 773.32,-280.61 778.04,-285.78"/>
</g>
<!-- node_0x5583c27a1000 -->
<g id="node29" class="node">
<title>node_0x5583c27a1000</title>
<polygon fill="#ccccff" stroke="black" points="715.95,-170.68 802.48,-158.24 889.01,-170.68 888.93,-190.81 716.03,-190.81 715.95,-170.68"/>
<text text-anchor="middle" x="802.48" y="-172.54" font-family="Times,serif" font-size="14.00">ELEM_PUTC</text>
</g>
<!-- node_0x5583c27a1030&#45;&gt;node_0x5583c27a1000 -->
<g id="edge28" class="edge">
<title>node_0x5583c27a1030&#45;&gt;node_0x5583c27a1000</title>
<path fill="none" stroke="black" d="M802.48,-234.58C802.48,-224.22 802.48,-211.85 802.48,-201.26"/>
<polygon fill="black" stroke="black" points="805.98,-201.03 802.48,-191.03 798.98,-201.03 805.98,-201.03"/>
</g>
<!-- node_0x5583c27a10c0 -->
<g id="node31" class="node">
<title>node_0x5583c27a10c0</title>
<polygon fill="#cccccc" stroke="black" points="907.48,-169.15 934.48,-153.29 961.48,-169.15 961.46,-194.81 907.51,-194.81 907.48,-169.15"/>
<text text-anchor="middle" x="934.48" y="-172.44" font-family="Times,serif" font-size="16.00">;</text>
</g>
<!-- node_0x5583c27a1030&#45;&gt;node_0x5583c27a10c0 -->
<g id="edge30" class="edge">
<title>node_0x5583c27a1030&#45;&gt;node_0x5583c27a10c0</title>
<path fill="none" stroke="black" d="M821.25,-245.45C840.61,-233.82 871.67,-215.15 898.48,-198.99 898.57,-198.94 898.66,-198.88 898.75,-198.83"/>
<polygon fill="black" stroke="black" points="900.61,-201.8 907.36,-193.64 896.99,-195.81 900.61,-201.8"/>
</g>
<!-- node_0x5583c27a0fd0 -->
<g id="node30" class="node">
<title>node_0x5583c27a0fd0</title>
<ellipse fill="#ffffcc" stroke="black" cx="803.48" cy="-94.75" rx="23" ry="23"/>
<text text-anchor="middle" x="803.48" y="-91.05" font-family="Times,serif" font-size="14.00">89</text>
</g>
<!-- node_0x5583c27a1000&#45;&gt;node_0x5583c27a0fd0 -->
<g id="edge29" class="edge">
<title>node_0x5583c27a1000&#45;&gt;node_0x5583c27a0fd0</title>
<path fill="none" stroke="black" d="M802.7,-157.99C802.81,-149.09 802.95,-137.94 803.08,-127.54"/>
<polygon fill="black" stroke="black" points="806.58,-127.56 803.21,-117.51 799.58,-127.47 806.58,-127.56"/>
</g>
<!-- node_0x5583c27a1090 -->
<g id="node32" class="node">
<title>node_0x5583c27a1090</title>
<polygon fill="#ccccff" stroke="black" points="845.24,-89.19 933.48,-76.75 1021.73,-89.19 1021.64,-109.31 845.32,-109.31 845.24,-89.19"/>
<text text-anchor="middle" x="933.48" y="-91.05" font-family="Times,serif" font-size="14.00">ELEM_PUTN</text>
</g>
<!-- node_0x5583c27a10c0&#45;&gt;node_0x5583c27a1090 -->
<g id="edge31" class="edge">
<title>node_0x5583c27a10c0&#45;&gt;node_0x5583c27a1090</title>
<path fill="none" stroke="black" d="M934.2,-153.1C934.07,-142.73 933.92,-130.37 933.79,-119.78"/>
<polygon fill="black" stroke="black" points="937.28,-119.49 933.66,-109.54 930.28,-119.58 937.28,-119.49"/>
</g>
<!-- node_0x5583c27a1120 -->
<g id="node34" class="node">
<title>node_0x5583c27a1120</title>
<polygon fill="#cccccc" stroke="black" points="1039.48,-87.66 1066.48,-71.8 1093.48,-87.66 1093.46,-113.32 1039.51,-113.32 1039.48,-87.66"/>
<text text-anchor="middle" x="1066.48" y="-90.95" font-family="Times,serif" font-size="16.00">;</text>
</g>
<!-- node_0x5583c27a10c0&#45;&gt;node_0x5583c27a1120 -->
<g id="edge33" class="edge">
<title>node_0x5583c27a10c0&#45;&gt;node_0x5583c27a1120</title>
<path fill="none" stroke="black" d="M953.25,-163.97C972.61,-152.34 1003.67,-133.66 1030.48,-117.5 1030.57,-117.44 1030.66,-117.39 1030.75,-117.33"/>
<polygon fill="black" stroke="black" points="1032.61,-120.3 1039.36,-112.14 1028.99,-114.31 1032.61,-120.3"/>
</g>
<!-- node_0x5583c27a1060 -->
<g id="node33" class="node">
<title>node_0x5583c27a1060</title>
<ellipse fill="#ccffff" stroke="black" cx="933.48" cy="-18" rx="18" ry="18"/>
<text text-anchor="middle" x="933.48" y="-14.3" font-family="Times,serif" font-size="14.00">a</text>
</g>
<!-- node_0x5583c27a1090&#45;&gt;node_0x5583c27a1060 -->
<g id="edge32" class="edge">
<title>node_0x5583c27a1090&#45;&gt;node_0x5583c27a1060</title>
<path fill="none" stroke="black" d="M933.48,-76.41C933.48,-67.54 933.48,-56.54 933.48,-46.54"/>
<polygon fill="black" stroke="black" points="936.98,-46.24 933.48,-36.24 929.98,-46.24 936.98,-46.24"/>
</g>
<!-- node_0x5583c27a10f0 -->
<g id="node35" class="node">
<title>node_0x5583c27a10f0</title>
<polygon fill="#ccccff" stroke="black" points="978.24,-12.44 1066.48,0 1154.73,-12.44 1154.64,-32.56 978.32,-32.56 978.24,-12.44"/>
<text text-anchor="middle" x="1066.48" y="-14.3" font-family="Times,serif" font-size="14.00">ELEM_PUTN</text>
</g>
<!-- node_0x5583c27a1120&#45;&gt;node_0x5583c27a10f0 -->
<g id="edge34" class="edge">
<title>node_0x5583c27a1120&#45;&gt;node_0x5583c27a10f0</title>
<path fill="none" stroke="black" d="M1066.48,-71.73C1066.48,-62.69 1066.48,-52.2 1066.48,-42.97"/>
<polygon fill="black" stroke="black" points="1069.98,-42.87 1066.48,-32.87 1062.98,-42.87 1069.98,-42.87"/>
</g>
</g>
</svg>
