<?xml version="1.0" encoding="UTF-8" standalone="no"?>
<!DOCTYPE svg PUBLIC "-//W3C//DTD SVG 1.1//EN"
 "http://www.w3.org/Graphics/SVG/1.1/DTD/svg11.dtd">
<!-- Generated by graphviz version 2.43.0 (0)
 -->
<!-- Title: list Pages: 1 -->
<svg width="929pt" height="723pt"
 viewBox="0.00 0.00 928.50 722.99" xmlns="http://www.w3.org/2000/svg" xmlns:xlink="http://www.w3.org/1999/xlink">
<g id="graph0" class="graph" transform="scale(1 1) rotate(0) translate(4 718.99)">
<title>list</title>
<polygon fill="white" stroke="transparent" points="-4,4 -4,-718.99 924.5,-718.99 924.5,4 -4,4"/>
<!-- node_0x55fca9f92180 -->
<g id="node1" class="node">
<title>node_0x55fca9f92180</title>
<polygon fill="none" stroke="black" points="357.5,-714.99 303.5,-714.99 303.5,-678.99 357.5,-678.99 357.5,-714.99"/>
<text text-anchor="middle" x="330.5" y="-693.29" font-family="Times,serif" font-size="14.00">59 [;]</text>
</g>
<!-- node_0x55fca9f92150 -->
<g id="node2" class="node">
<title>node_0x55fca9f92150</title>
<polygon fill="none" stroke="black" points="390,-642.99 271,-642.99 271,-604.99 390,-604.99 390,-642.99"/>
<text text-anchor="middle" x="330.5" y="-627.79" font-family="Times,serif" font-size="14.00">301</text>
<text text-anchor="middle" x="330.5" y="-612.79" font-family="Times,serif" font-size="14.00">[FUNC_DECL]</text>
</g>
<!-- node_0x55fca9f92180&#45;&gt;node_0x55fca9f92150 -->
<g id="edge1" class="edge">
<title>node_0x55fca9f92180&#45;&gt;node_0x55fca9f92150</title>
<path fill="none" stroke="black" d="M330.5,-678.8C330.5,-671.1 330.5,-661.82 330.5,-653.14"/>
<polygon fill="black" stroke="black" points="334,-653.01 330.5,-643.01 327,-653.01 334,-653.01"/>
</g>
<!-- node_0x55fca9f91c10 -->
<g id="node3" class="node">
<title>node_0x55fca9f91c10</title>
<polygon fill="none" stroke="black" points="333.5,-568.99 217.5,-568.99 217.5,-530.99 333.5,-530.99 333.5,-568.99"/>
<text text-anchor="middle" x="275.5" y="-553.79" font-family="Times,serif" font-size="14.00">300</text>
<text text-anchor="middle" x="275.5" y="-538.79" font-family="Times,serif" font-size="14.00">[FUNC_INFO]</text>
</g>
<!-- node_0x55fca9f92150&#45;&gt;node_0x55fca9f91c10 -->
<g id="edge2" class="edge">
<title>node_0x55fca9f92150&#45;&gt;node_0x55fca9f91c10</title>
<path fill="none" stroke="black" d="M316.62,-604.82C310.29,-596.53 302.66,-586.55 295.71,-577.45"/>
<polygon fill="black" stroke="black" points="298.42,-575.23 289.57,-569.41 292.85,-579.48 298.42,-575.23"/>
</g>
<!-- node_0x55fca9f91c40 -->
<g id="node9" class="node">
<title>node_0x55fca9f91c40</title>
<polygon fill="none" stroke="black" points="419.5,-567.99 351.5,-567.99 351.5,-531.99 419.5,-531.99 419.5,-567.99"/>
<text text-anchor="middle" x="385.5" y="-546.29" font-family="Times,serif" font-size="14.00">123 [{]</text>
</g>
<!-- node_0x55fca9f92150&#45;&gt;node_0x55fca9f91c40 -->
<g id="edge8" class="edge">
<title>node_0x55fca9f92150&#45;&gt;node_0x55fca9f91c40</title>
<path fill="none" stroke="black" d="M344.38,-604.82C350.91,-596.28 358.81,-585.93 365.93,-576.61"/>
<polygon fill="black" stroke="black" points="368.91,-578.48 372.19,-568.41 363.34,-574.23 368.91,-578.48"/>
</g>
<!-- node_0x55fca9f91b50 -->
<g id="node4" class="node">
<title>node_0x55fca9f91b50</title>
<polygon fill="none" stroke="black" points="249.5,-494.99 91.5,-494.99 91.5,-456.99 249.5,-456.99 249.5,-494.99"/>
<text text-anchor="middle" x="170.5" y="-479.79" font-family="Times,serif" font-size="14.00">302</text>
<text text-anchor="middle" x="170.5" y="-464.79" font-family="Times,serif" font-size="14.00">[FUNC_ARG_DECL]</text>
</g>
<!-- node_0x55fca9f91c10&#45;&gt;node_0x55fca9f91b50 -->
<g id="edge3" class="edge">
<title>node_0x55fca9f91c10&#45;&gt;node_0x55fca9f91b50</title>
<path fill="none" stroke="black" d="M249,-530.82C235.82,-521.78 219.72,-510.74 205.53,-501.01"/>
<polygon fill="black" stroke="black" points="207.21,-497.92 196.99,-495.15 203.26,-503.7 207.21,-497.92"/>
</g>
<!-- node_0x55fca9f91b20 -->
<g id="node8" class="node">
<title>node_0x55fca9f91b20</title>
<polygon fill="none" stroke="green" points="321.5,-493.99 267.5,-493.99 267.5,-457.99 321.5,-457.99 321.5,-493.99"/>
<text text-anchor="middle" x="294.5" y="-472.29" font-family="Times,serif" font-size="14.00">main</text>
</g>
<!-- node_0x55fca9f91c10&#45;&gt;node_0x55fca9f91b20 -->
<g id="edge7" class="edge">
<title>node_0x55fca9f91c10&#45;&gt;node_0x55fca9f91b20</title>
<path fill="none" stroke="black" d="M280.29,-530.82C282.41,-522.8 284.95,-513.19 287.29,-504.33"/>
<polygon fill="black" stroke="black" points="290.74,-504.97 289.9,-494.41 283.97,-503.19 290.74,-504.97"/>
</g>
<!-- node_0x55fca9f91bb0 -->
<g id="node5" class="node">
<title>node_0x55fca9f91bb0</title>
<polygon fill="none" stroke="black" points="95,-420.99 0,-420.99 0,-382.99 95,-382.99 95,-420.99"/>
<text text-anchor="middle" x="47.5" y="-405.79" font-family="Times,serif" font-size="14.00">20</text>
<text text-anchor="middle" x="47.5" y="-390.79" font-family="Times,serif" font-size="14.00">[VAR_DEF]</text>
</g>
<!-- node_0x55fca9f91b50&#45;&gt;node_0x55fca9f91bb0 -->
<g id="edge4" class="edge">
<title>node_0x55fca9f91b50&#45;&gt;node_0x55fca9f91bb0</title>
<path fill="none" stroke="black" d="M139.46,-456.82C123.73,-447.61 104.44,-436.32 87.6,-426.46"/>
<polygon fill="black" stroke="black" points="88.93,-423.19 78.53,-421.15 85.39,-429.23 88.93,-423.19"/>
</g>
<!-- node_0x55fca9f91be0 -->
<g id="node7" class="node">
<title>node_0x55fca9f91be0</title>
<polygon fill="none" stroke="black" points="271.5,-420.99 113.5,-420.99 113.5,-382.99 271.5,-382.99 271.5,-420.99"/>
<text text-anchor="middle" x="192.5" y="-405.79" font-family="Times,serif" font-size="14.00">302</text>
<text text-anchor="middle" x="192.5" y="-390.79" font-family="Times,serif" font-size="14.00">[FUNC_ARG_DECL]</text>
</g>
<!-- node_0x55fca9f91b50&#45;&gt;node_0x55fca9f91be0 -->
<g id="edge6" class="edge">
<title>node_0x55fca9f91b50&#45;&gt;node_0x55fca9f91be0</title>
<path fill="none" stroke="black" d="M176.05,-456.82C178.43,-449.04 181.26,-439.76 183.9,-431.13"/>
<polygon fill="black" stroke="black" points="187.3,-431.99 186.87,-421.41 180.6,-429.95 187.3,-431.99"/>
</g>
<!-- node_0x55fca9f91b80 -->
<g id="node6" class="node">
<title>node_0x55fca9f91b80</title>
<polygon fill="none" stroke="green" points="74.5,-346.99 20.5,-346.99 20.5,-310.99 74.5,-310.99 74.5,-346.99"/>
<text text-anchor="middle" x="47.5" y="-325.29" font-family="Times,serif" font-size="14.00">a</text>
</g>
<!-- node_0x55fca9f91bb0&#45;&gt;node_0x55fca9f91b80 -->
<g id="edge5" class="edge">
<title>node_0x55fca9f91bb0&#45;&gt;node_0x55fca9f91b80</title>
<path fill="none" stroke="black" d="M47.5,-382.71C47.5,-374.97 47.5,-365.78 47.5,-357.27"/>
<polygon fill="black" stroke="black" points="51,-357 47.5,-347 44,-357 51,-357"/>
</g>
<!-- node_0x55fca9f91d00 -->
<g id="node10" class="node">
<title>node_0x55fca9f91d00</title>
<polygon fill="none" stroke="black" points="412.5,-493.99 358.5,-493.99 358.5,-457.99 412.5,-457.99 412.5,-493.99"/>
<text text-anchor="middle" x="385.5" y="-472.29" font-family="Times,serif" font-size="14.00">59 [;]</text>
</g>
<!-- node_0x55fca9f91c40&#45;&gt;node_0x55fca9f91d00 -->
<g id="edge9" class="edge">
<title>node_0x55fca9f91c40&#45;&gt;node_0x55fca9f91d00</title>
<path fill="none" stroke="black" d="M385.5,-531.93C385.5,-523.8 385.5,-513.87 385.5,-504.7"/>
<polygon fill="black" stroke="black" points="389,-504.43 385.5,-494.43 382,-504.43 389,-504.43"/>
</g>
<!-- node_0x55fca9f91cd0 -->
<g id="node11" class="node">
<title>node_0x55fca9f91cd0</title>
<polygon fill="none" stroke="black" points="394.5,-419.99 332.5,-419.99 332.5,-383.99 394.5,-383.99 394.5,-419.99"/>
<text text-anchor="middle" x="363.5" y="-398.29" font-family="Times,serif" font-size="14.00">61 [=]</text>
</g>
<!-- node_0x55fca9f91d00&#45;&gt;node_0x55fca9f91cd0 -->
<g id="edge10" class="edge">
<title>node_0x55fca9f91d00&#45;&gt;node_0x55fca9f91cd0</title>
<path fill="none" stroke="black" d="M380.29,-457.93C377.75,-449.62 374.64,-439.44 371.78,-430.1"/>
<polygon fill="black" stroke="black" points="375.1,-428.97 368.83,-420.43 368.4,-431.02 375.1,-428.97"/>
</g>
<!-- node_0x55fca9f91d30 -->
<g id="node14" class="node">
<title>node_0x55fca9f91d30</title>
<polygon fill="none" stroke="black" points="480.5,-419.99 412.5,-419.99 412.5,-383.99 480.5,-383.99 480.5,-419.99"/>
<text text-anchor="middle" x="446.5" y="-398.29" font-family="Times,serif" font-size="14.00">123 [{]</text>
</g>
<!-- node_0x55fca9f91d00&#45;&gt;node_0x55fca9f91d30 -->
<g id="edge13" class="edge">
<title>node_0x55fca9f91d00&#45;&gt;node_0x55fca9f91d30</title>
<path fill="none" stroke="black" d="M399.96,-457.93C407.44,-449.09 416.73,-438.13 425.04,-428.32"/>
<polygon fill="black" stroke="black" points="427.93,-430.32 431.72,-420.43 422.59,-425.8 427.93,-430.32"/>
</g>
<!-- node_0x55fca9f91c70 -->
<g id="node12" class="node">
<title>node_0x55fca9f91c70</title>
<polygon fill="none" stroke="green" points="332.5,-346.99 278.5,-346.99 278.5,-310.99 332.5,-310.99 332.5,-346.99"/>
<text text-anchor="middle" x="305.5" y="-325.29" font-family="Times,serif" font-size="14.00">a</text>
</g>
<!-- node_0x55fca9f91cd0&#45;&gt;node_0x55fca9f91c70 -->
<g id="edge11" class="edge">
<title>node_0x55fca9f91cd0&#45;&gt;node_0x55fca9f91c70</title>
<path fill="none" stroke="black" d="M349.46,-383.8C342.41,-375.17 333.73,-364.55 325.95,-355.03"/>
<polygon fill="black" stroke="black" points="328.45,-352.55 319.41,-347.02 323.03,-356.98 328.45,-352.55"/>
</g>
<!-- node_0x55fca9f91ca0 -->
<g id="node13" class="node">
<title>node_0x55fca9f91ca0</title>
<ellipse fill="none" stroke="violet" cx="368.5" cy="-328.99" rx="18" ry="18"/>
<text text-anchor="middle" x="368.5" y="-325.29" font-family="Times,serif" font-size="14.00">5</text>
</g>
<!-- node_0x55fca9f91cd0&#45;&gt;node_0x55fca9f91ca0 -->
<g id="edge12" class="edge">
<title>node_0x55fca9f91cd0&#45;&gt;node_0x55fca9f91ca0</title>
<path fill="none" stroke="black" d="M364.71,-383.8C365.28,-375.78 365.96,-366.04 366.59,-357.06"/>
<polygon fill="black" stroke="black" points="370.09,-357.24 367.3,-347.02 363.11,-356.75 370.09,-357.24"/>
</g>
<!-- node_0x55fca9f91dc0 -->
<g id="node15" class="node">
<title>node_0x55fca9f91dc0</title>
<polygon fill="none" stroke="black" points="468.5,-346.99 414.5,-346.99 414.5,-310.99 468.5,-310.99 468.5,-346.99"/>
<text text-anchor="middle" x="441.5" y="-325.29" font-family="Times,serif" font-size="14.00">59 [;]</text>
</g>
<!-- node_0x55fca9f91d30&#45;&gt;node_0x55fca9f91dc0 -->
<g id="edge14" class="edge">
<title>node_0x55fca9f91d30&#45;&gt;node_0x55fca9f91dc0</title>
<path fill="none" stroke="black" d="M445.29,-383.8C444.72,-375.78 444.04,-366.04 443.41,-357.06"/>
<polygon fill="black" stroke="black" points="446.89,-356.75 442.7,-347.02 439.91,-357.24 446.89,-356.75"/>
</g>
<!-- node_0x55fca9f91fa0 -->
<g id="node27" class="node">
<title>node_0x55fca9f91fa0</title>
<polygon fill="none" stroke="black" points="619.5,-346.99 551.5,-346.99 551.5,-310.99 619.5,-310.99 619.5,-346.99"/>
<text text-anchor="middle" x="585.5" y="-325.29" font-family="Times,serif" font-size="14.00">123 [{]</text>
</g>
<!-- node_0x55fca9f91d30&#45;&gt;node_0x55fca9f91fa0 -->
<g id="edge26" class="edge">
<title>node_0x55fca9f91d30&#45;&gt;node_0x55fca9f91fa0</title>
<path fill="none" stroke="black" d="M479.79,-383.99C498.74,-374.31 522.66,-362.09 542.96,-351.72"/>
<polygon fill="black" stroke="black" points="544.68,-354.77 552,-347.11 541.5,-348.54 544.68,-354.77"/>
</g>
<!-- node_0x55fca9f91d90 -->
<g id="node16" class="node">
<title>node_0x55fca9f91d90</title>
<polygon fill="none" stroke="black" points="377,-274.99 258,-274.99 258,-236.99 377,-236.99 377,-274.99"/>
<text text-anchor="middle" x="317.5" y="-259.79" font-family="Times,serif" font-size="14.00">101</text>
<text text-anchor="middle" x="317.5" y="-244.79" font-family="Times,serif" font-size="14.00">[ELEM_PUTC]</text>
</g>
<!-- node_0x55fca9f91dc0&#45;&gt;node_0x55fca9f91d90 -->
<g id="edge15" class="edge">
<title>node_0x55fca9f91dc0&#45;&gt;node_0x55fca9f91d90</title>
<path fill="none" stroke="black" d="M414.29,-312.41C397.75,-302.94 376.32,-290.67 357.83,-280.09"/>
<polygon fill="black" stroke="black" points="359.44,-276.98 349.03,-275.04 355.97,-283.05 359.44,-276.98"/>
</g>
<!-- node_0x55fca9f91e80 -->
<g id="node18" class="node">
<title>node_0x55fca9f91e80</title>
<polygon fill="none" stroke="black" points="468.5,-273.99 414.5,-273.99 414.5,-237.99 468.5,-237.99 468.5,-273.99"/>
<text text-anchor="middle" x="441.5" y="-252.29" font-family="Times,serif" font-size="14.00">59 [;]</text>
</g>
<!-- node_0x55fca9f91dc0&#45;&gt;node_0x55fca9f91e80 -->
<g id="edge17" class="edge">
<title>node_0x55fca9f91dc0&#45;&gt;node_0x55fca9f91e80</title>
<path fill="none" stroke="black" d="M441.5,-310.8C441.5,-302.78 441.5,-293.04 441.5,-284.06"/>
<polygon fill="black" stroke="black" points="445,-284.02 441.5,-274.02 438,-284.02 445,-284.02"/>
</g>
<!-- node_0x55fca9f91d60 -->
<g id="node17" class="node">
<title>node_0x55fca9f91d60</title>
<ellipse fill="none" stroke="violet" cx="297.5" cy="-178.24" rx="23" ry="23"/>
<text text-anchor="middle" x="297.5" y="-174.54" font-family="Times,serif" font-size="14.00">88</text>
</g>
<!-- node_0x55fca9f91d90&#45;&gt;node_0x55fca9f91d60 -->
<g id="edge16" class="edge">
<title>node_0x55fca9f91d90&#45;&gt;node_0x55fca9f91d60</title>
<path fill="none" stroke="black" d="M312.66,-236.66C310.56,-228.7 308.04,-219.17 305.67,-210.17"/>
<polygon fill="black" stroke="black" points="309.01,-209.13 303.08,-200.36 302.24,-210.92 309.01,-209.13"/>
</g>
<!-- node_0x55fca9f91e20 -->
<g id="node19" class="node">
<title>node_0x55fca9f91e20</title>
<polygon fill="none" stroke="black" points="433,-197.24 338,-197.24 338,-159.24 433,-159.24 433,-197.24"/>
<text text-anchor="middle" x="385.5" y="-182.04" font-family="Times,serif" font-size="14.00">20</text>
<text text-anchor="middle" x="385.5" y="-167.04" font-family="Times,serif" font-size="14.00">[VAR_DEF]</text>
</g>
<!-- node_0x55fca9f91e80&#45;&gt;node_0x55fca9f91e20 -->
<g id="edge18" class="edge">
<title>node_0x55fca9f91e80&#45;&gt;node_0x55fca9f91e20</title>
<path fill="none" stroke="black" d="M428.79,-237.8C421.76,-228.3 412.88,-216.28 405,-205.61"/>
<polygon fill="black" stroke="black" points="407.7,-203.38 398.94,-197.42 402.07,-207.54 407.7,-203.38"/>
</g>
<!-- node_0x55fca9f91f10 -->
<g id="node22" class="node">
<title>node_0x55fca9f91f10</title>
<polygon fill="none" stroke="black" points="506.5,-196.24 452.5,-196.24 452.5,-160.24 506.5,-160.24 506.5,-196.24"/>
<text text-anchor="middle" x="479.5" y="-174.54" font-family="Times,serif" font-size="14.00">59 [;]</text>
</g>
<!-- node_0x55fca9f91e80&#45;&gt;node_0x55fca9f91f10 -->
<g id="edge21" class="edge">
<title>node_0x55fca9f91e80&#45;&gt;node_0x55fca9f91f10</title>
<path fill="none" stroke="black" d="M450.12,-237.8C454.93,-228.22 461.02,-216.08 466.41,-205.34"/>
<polygon fill="black" stroke="black" points="469.56,-206.87 470.91,-196.36 463.3,-203.73 469.56,-206.87"/>
</g>
<!-- node_0x55fca9f91df0 -->
<g id="node20" class="node">
<title>node_0x55fca9f91df0</title>
<polygon fill="none" stroke="green" points="347.5,-114.75 293.5,-114.75 293.5,-78.75 347.5,-78.75 347.5,-114.75"/>
<text text-anchor="middle" x="320.5" y="-93.05" font-family="Times,serif" font-size="14.00">a</text>
</g>
<!-- node_0x55fca9f91e20&#45;&gt;node_0x55fca9f91df0 -->
<g id="edge19" class="edge">
<title>node_0x55fca9f91e20&#45;&gt;node_0x55fca9f91df0</title>
<path fill="none" stroke="black" d="M370.75,-159.21C361.92,-148.41 350.58,-134.54 340.9,-122.7"/>
<polygon fill="black" stroke="black" points="343.56,-120.42 334.52,-114.9 338.14,-124.86 343.56,-120.42"/>
</g>
<!-- node_0x55fca9f91e50 -->
<g id="node21" class="node">
<title>node_0x55fca9f91e50</title>
<ellipse fill="none" stroke="violet" cx="383.5" cy="-96.75" rx="18" ry="18"/>
<text text-anchor="middle" x="383.5" y="-93.05" font-family="Times,serif" font-size="14.00">1</text>
</g>
<!-- node_0x55fca9f91e20&#45;&gt;node_0x55fca9f91e50 -->
<g id="edge20" class="edge">
<title>node_0x55fca9f91e20&#45;&gt;node_0x55fca9f91e50</title>
<path fill="none" stroke="black" d="M385.05,-159.21C384.79,-149.14 384.47,-136.39 384.19,-125.12"/>
<polygon fill="black" stroke="black" points="387.68,-124.81 383.93,-114.9 380.68,-124.98 387.68,-124.81"/>
</g>
<!-- node_0x55fca9f91ee0 -->
<g id="node23" class="node">
<title>node_0x55fca9f91ee0</title>
<polygon fill="none" stroke="black" points="539.5,-115.75 419.5,-115.75 419.5,-77.75 539.5,-77.75 539.5,-115.75"/>
<text text-anchor="middle" x="479.5" y="-100.55" font-family="Times,serif" font-size="14.00">100</text>
<text text-anchor="middle" x="479.5" y="-85.55" font-family="Times,serif" font-size="14.00">[ELEM_PUTN]</text>
</g>
<!-- node_0x55fca9f91f10&#45;&gt;node_0x55fca9f91ee0 -->
<g id="edge22" class="edge">
<title>node_0x55fca9f91f10&#45;&gt;node_0x55fca9f91ee0</title>
<path fill="none" stroke="black" d="M479.5,-159.99C479.5,-150.1 479.5,-137.43 479.5,-126.1"/>
<polygon fill="black" stroke="black" points="483,-125.79 479.5,-115.79 476,-125.79 483,-125.79"/>
</g>
<!-- node_0x55fca9f91f70 -->
<g id="node25" class="node">
<title>node_0x55fca9f91f70</title>
<polygon fill="none" stroke="black" points="611.5,-114.75 557.5,-114.75 557.5,-78.75 611.5,-78.75 611.5,-114.75"/>
<text text-anchor="middle" x="584.5" y="-93.05" font-family="Times,serif" font-size="14.00">59 [;]</text>
</g>
<!-- node_0x55fca9f91f10&#45;&gt;node_0x55fca9f91f70 -->
<g id="edge24" class="edge">
<title>node_0x55fca9f91f10&#45;&gt;node_0x55fca9f91f70</title>
<path fill="none" stroke="black" d="M502.03,-160.19C517.11,-148.77 537.16,-133.59 553.72,-121.05"/>
<polygon fill="black" stroke="black" points="556.15,-123.6 562.01,-114.77 551.93,-118.02 556.15,-123.6"/>
</g>
<!-- node_0x55fca9f91eb0 -->
<g id="node24" class="node">
<title>node_0x55fca9f91eb0</title>
<polygon fill="none" stroke="green" points="506.5,-37 452.5,-37 452.5,-1 506.5,-1 506.5,-37"/>
<text text-anchor="middle" x="479.5" y="-15.3" font-family="Times,serif" font-size="14.00">a</text>
</g>
<!-- node_0x55fca9f91ee0&#45;&gt;node_0x55fca9f91eb0 -->
<g id="edge23" class="edge">
<title>node_0x55fca9f91ee0&#45;&gt;node_0x55fca9f91eb0</title>
<path fill="none" stroke="black" d="M479.5,-77.41C479.5,-68.41 479.5,-57.38 479.5,-47.4"/>
<polygon fill="black" stroke="black" points="483,-47.13 479.5,-37.13 476,-47.13 483,-47.13"/>
</g>
<!-- node_0x55fca9f91f40 -->
<g id="node26" class="node">
<title>node_0x55fca9f91f40</title>
<polygon fill="none" stroke="black" points="644.5,-38 524.5,-38 524.5,0 644.5,0 644.5,-38"/>
<text text-anchor="middle" x="584.5" y="-22.8" font-family="Times,serif" font-size="14.00">100</text>
<text text-anchor="middle" x="584.5" y="-7.8" font-family="Times,serif" font-size="14.00">[ELEM_PUTN]</text>
</g>
<!-- node_0x55fca9f91f70&#45;&gt;node_0x55fca9f91f40 -->
<g id="edge25" class="edge">
<title>node_0x55fca9f91f70&#45;&gt;node_0x55fca9f91f40</title>
<path fill="none" stroke="black" d="M584.5,-78.56C584.5,-69.62 584.5,-58.46 584.5,-48.29"/>
<polygon fill="black" stroke="black" points="588,-48.18 584.5,-38.18 581,-48.18 588,-48.18"/>
</g>
<!-- node_0x55fca9f92030 -->
<g id="node28" class="node">
<title>node_0x55fca9f92030</title>
<polygon fill="none" stroke="black" points="678.5,-273.99 624.5,-273.99 624.5,-237.99 678.5,-237.99 678.5,-273.99"/>
<text text-anchor="middle" x="651.5" y="-252.29" font-family="Times,serif" font-size="14.00">59 [;]</text>
</g>
<!-- node_0x55fca9f91fa0&#45;&gt;node_0x55fca9f92030 -->
<g id="edge27" class="edge">
<title>node_0x55fca9f91fa0&#45;&gt;node_0x55fca9f92030</title>
<path fill="none" stroke="black" d="M601.48,-310.8C609.66,-302 619.78,-291.12 628.76,-281.45"/>
<polygon fill="black" stroke="black" points="631.43,-283.73 635.67,-274.02 626.3,-278.96 631.43,-283.73"/>
</g>
<!-- node_0x55fca9f92000 -->
<g id="node29" class="node">
<title>node_0x55fca9f92000</title>
<polygon fill="none" stroke="black" points="711,-197.24 592,-197.24 592,-159.24 711,-159.24 711,-197.24"/>
<text text-anchor="middle" x="651.5" y="-182.04" font-family="Times,serif" font-size="14.00">101</text>
<text text-anchor="middle" x="651.5" y="-167.04" font-family="Times,serif" font-size="14.00">[ELEM_PUTC]</text>
</g>
<!-- node_0x55fca9f92030&#45;&gt;node_0x55fca9f92000 -->
<g id="edge28" class="edge">
<title>node_0x55fca9f92030&#45;&gt;node_0x55fca9f92000</title>
<path fill="none" stroke="black" d="M651.5,-237.8C651.5,-228.86 651.5,-217.7 651.5,-207.53"/>
<polygon fill="black" stroke="black" points="655,-207.42 651.5,-197.42 648,-207.42 655,-207.42"/>
</g>
<!-- node_0x55fca9f920c0 -->
<g id="node31" class="node">
<title>node_0x55fca9f920c0</title>
<polygon fill="none" stroke="black" points="783.5,-196.24 729.5,-196.24 729.5,-160.24 783.5,-160.24 783.5,-196.24"/>
<text text-anchor="middle" x="756.5" y="-174.54" font-family="Times,serif" font-size="14.00">59 [;]</text>
</g>
<!-- node_0x55fca9f92030&#45;&gt;node_0x55fca9f920c0 -->
<g id="edge30" class="edge">
<title>node_0x55fca9f92030&#45;&gt;node_0x55fca9f920c0</title>
<path fill="none" stroke="black" d="M675.33,-237.8C689.83,-227.34 708.53,-213.85 724.33,-202.45"/>
<polygon fill="black" stroke="black" points="726.71,-205.05 732.77,-196.36 722.61,-199.38 726.71,-205.05"/>
</g>
<!-- node_0x55fca9f91fd0 -->
<g id="node30" class="node">
<title>node_0x55fca9f91fd0</title>
<ellipse fill="none" stroke="violet" cx="652.5" cy="-96.75" rx="23" ry="23"/>
<text text-anchor="middle" x="652.5" y="-93.05" font-family="Times,serif" font-size="14.00">89</text>
</g>
<!-- node_0x55fca9f92000&#45;&gt;node_0x55fca9f91fd0 -->
<g id="edge29" class="edge">
<title>node_0x55fca9f92000&#45;&gt;node_0x55fca9f91fd0</title>
<path fill="none" stroke="black" d="M651.73,-159.21C651.84,-150.5 651.97,-139.79 652.1,-129.77"/>
<polygon fill="black" stroke="black" points="655.6,-129.72 652.22,-119.68 648.6,-129.64 655.6,-129.72"/>
</g>
<!-- node_0x55fca9f92090 -->
<g id="node32" class="node">
<title>node_0x55fca9f92090</title>
<polygon fill="none" stroke="black" points="815.5,-115.75 695.5,-115.75 695.5,-77.75 815.5,-77.75 815.5,-115.75"/>
<text text-anchor="middle" x="755.5" y="-100.55" font-family="Times,serif" font-size="14.00">100</text>
<text text-anchor="middle" x="755.5" y="-85.55" font-family="Times,serif" font-size="14.00">[ELEM_PUTN]</text>
</g>
<!-- node_0x55fca9f920c0&#45;&gt;node_0x55fca9f92090 -->
<g id="edge31" class="edge">
<title>node_0x55fca9f920c0&#45;&gt;node_0x55fca9f92090</title>
<path fill="none" stroke="black" d="M756.28,-159.99C756.16,-150.1 756,-137.43 755.86,-126.1"/>
<polygon fill="black" stroke="black" points="759.35,-125.75 755.73,-115.79 752.35,-125.83 759.35,-125.75"/>
</g>
<!-- node_0x55fca9f92120 -->
<g id="node34" class="node">
<title>node_0x55fca9f92120</title>
<polygon fill="none" stroke="black" points="887.5,-114.75 833.5,-114.75 833.5,-78.75 887.5,-78.75 887.5,-114.75"/>
<text text-anchor="middle" x="860.5" y="-93.05" font-family="Times,serif" font-size="14.00">59 [;]</text>
</g>
<!-- node_0x55fca9f920c0&#45;&gt;node_0x55fca9f92120 -->
<g id="edge33" class="edge">
<title>node_0x55fca9f920c0&#45;&gt;node_0x55fca9f92120</title>
<path fill="none" stroke="black" d="M778.81,-160.19C793.75,-148.77 813.61,-133.59 830.01,-121.05"/>
<polygon fill="black" stroke="black" points="832.41,-123.63 838.23,-114.77 828.16,-118.07 832.41,-123.63"/>
</g>
<!-- node_0x55fca9f92060 -->
<g id="node33" class="node">
<title>node_0x55fca9f92060</title>
<polygon fill="none" stroke="green" points="782.5,-37 728.5,-37 728.5,-1 782.5,-1 782.5,-37"/>
<text text-anchor="middle" x="755.5" y="-15.3" font-family="Times,serif" font-size="14.00">a</text>
</g>
<!-- node_0x55fca9f92090&#45;&gt;node_0x55fca9f92060 -->
<g id="edge32" class="edge">
<title>node_0x55fca9f92090&#45;&gt;node_0x55fca9f92060</title>
<path fill="none" stroke="black" d="M755.5,-77.41C755.5,-68.41 755.5,-57.38 755.5,-47.4"/>
<polygon fill="black" stroke="black" points="759,-47.13 755.5,-37.13 752,-47.13 759,-47.13"/>
</g>
<!-- node_0x55fca9f920f0 -->
<g id="node35" class="node">
<title>node_0x55fca9f920f0</title>
<polygon fill="none" stroke="black" points="920.5,-38 800.5,-38 800.5,0 920.5,0 920.5,-38"/>
<text text-anchor="middle" x="860.5" y="-22.8" font-family="Times,serif" font-size="14.00">100</text>
<text text-anchor="middle" x="860.5" y="-7.8" font-family="Times,serif" font-size="14.00">[ELEM_PUTN]</text>
</g>
<!-- node_0x55fca9f92120&#45;&gt;node_0x55fca9f920f0 -->
<g id="edge34" class="edge">
<title>node_0x55fca9f92120&#45;&gt;node_0x55fca9f920f0</title>
<path fill="none" stroke="black" d="M860.5,-78.56C860.5,-69.62 860.5,-58.46 860.5,-48.29"/>
<polygon fill="black" stroke="black" points="864,-48.18 860.5,-38.18 857,-48.18 864,-48.18"/>
</g>
</g>
</svg>
