<?xml version="1.0" encoding="UTF-8" standalone="no"?>
<!DOCTYPE svg PUBLIC "-//W3C//DTD SVG 1.1//EN"
 "http://www.w3.org/Graphics/SVG/1.1/DTD/svg11.dtd">
<!-- Generated by graphviz version 2.43.0 (0)
 -->
<!-- Title: list Pages: 1 -->
<svg width="683pt" height="711pt"
 viewBox="0.00 0.00 683.00 710.99" xmlns="http://www.w3.org/2000/svg" xmlns:xlink="http://www.w3.org/1999/xlink">
<g id="graph0" class="graph" transform="scale(1 1) rotate(0) translate(4 706.99)">
<title>list</title>
<polygon fill="white" stroke="transparent" points="-4,4 -4,-706.99 679,-706.99 679,4 -4,4"/>
<!-- node_0x556adc629180 -->
<g id="node1" class="node">
<title>node_0x556adc629180</title>
<polygon fill="none" stroke="yellow" points="235,-702.99 181,-702.99 181,-666.99 235,-666.99 235,-702.99"/>
<text text-anchor="middle" x="208" y="-681.29" font-family="Times,serif" font-size="14.00">59 [;]</text>
</g>
<!-- node_0x556adc629150 -->
<g id="node2" class="node">
<title>node_0x556adc629150</title>
<polygon fill="none" stroke="yellow" points="239.5,-630.99 176.5,-630.99 176.5,-594.99 239.5,-594.99 239.5,-630.99"/>
<text text-anchor="middle" x="208" y="-609.29" font-family="Times,serif" font-size="14.00">301 [&#45;]</text>
</g>
<!-- node_0x556adc629180&#45;&gt;node_0x556adc629150 -->
<g id="edge1" class="edge">
<title>node_0x556adc629180&#45;&gt;node_0x556adc629150</title>
<path fill="none" stroke="black" d="M208,-666.69C208,-658.97 208,-649.7 208,-641.1"/>
<polygon fill="black" stroke="black" points="211.5,-641.1 208,-631.1 204.5,-641.1 211.5,-641.1"/>
</g>
<!-- node_0x556adc628c10 -->
<g id="node3" class="node">
<title>node_0x556adc628c10</title>
<polygon fill="none" stroke="yellow" points="197.5,-558.99 134.5,-558.99 134.5,-522.99 197.5,-522.99 197.5,-558.99"/>
<text text-anchor="middle" x="166" y="-537.29" font-family="Times,serif" font-size="14.00">300 [,]</text>
</g>
<!-- node_0x556adc629150&#45;&gt;node_0x556adc628c10 -->
<g id="edge2" class="edge">
<title>node_0x556adc629150&#45;&gt;node_0x556adc628c10</title>
<path fill="none" stroke="black" d="M197.62,-594.69C192.74,-586.55 186.81,-576.68 181.42,-567.69"/>
<polygon fill="black" stroke="black" points="184.41,-565.87 176.26,-559.1 178.41,-569.47 184.41,-565.87"/>
</g>
<!-- node_0x556adc628c40 -->
<g id="node9" class="node">
<title>node_0x556adc628c40</title>
<polygon fill="none" stroke="yellow" points="284,-558.99 216,-558.99 216,-522.99 284,-522.99 284,-558.99"/>
<text text-anchor="middle" x="250" y="-537.29" font-family="Times,serif" font-size="14.00">123 [{]</text>
</g>
<!-- node_0x556adc629150&#45;&gt;node_0x556adc628c40 -->
<g id="edge8" class="edge">
<title>node_0x556adc629150&#45;&gt;node_0x556adc628c40</title>
<path fill="none" stroke="black" d="M218.38,-594.69C223.26,-586.55 229.19,-576.68 234.58,-567.69"/>
<polygon fill="black" stroke="black" points="237.59,-569.47 239.74,-559.1 231.59,-565.87 237.59,-569.47"/>
</g>
<!-- node_0x556adc628b50 -->
<g id="node4" class="node">
<title>node_0x556adc628b50</title>
<polygon fill="none" stroke="yellow" points="126.5,-486.99 63.5,-486.99 63.5,-450.99 126.5,-450.99 126.5,-486.99"/>
<text text-anchor="middle" x="95" y="-465.29" font-family="Times,serif" font-size="14.00">302 [.]</text>
</g>
<!-- node_0x556adc628c10&#45;&gt;node_0x556adc628b50 -->
<g id="edge3" class="edge">
<title>node_0x556adc628c10&#45;&gt;node_0x556adc628b50</title>
<path fill="none" stroke="black" d="M148.45,-522.69C139.77,-514.13 129.14,-503.65 119.65,-494.3"/>
<polygon fill="black" stroke="black" points="121.93,-491.62 112.35,-487.1 117.01,-496.61 121.93,-491.62"/>
</g>
<!-- node_0x556adc628b20 -->
<g id="node8" class="node">
<title>node_0x556adc628b20</title>
<polygon fill="none" stroke="green" points="199,-486.99 145,-486.99 145,-450.99 199,-450.99 199,-486.99"/>
<text text-anchor="middle" x="172" y="-465.29" font-family="Times,serif" font-size="14.00">main</text>
</g>
<!-- node_0x556adc628c10&#45;&gt;node_0x556adc628b20 -->
<g id="edge7" class="edge">
<title>node_0x556adc628c10&#45;&gt;node_0x556adc628b20</title>
<path fill="none" stroke="black" d="M167.48,-522.69C168.14,-514.97 168.94,-505.7 169.68,-497.1"/>
<polygon fill="black" stroke="black" points="173.17,-497.36 170.53,-487.1 166.19,-496.76 173.17,-497.36"/>
</g>
<!-- node_0x556adc628bb0 -->
<g id="node5" class="node">
<title>node_0x556adc628bb0</title>
<polygon fill="none" stroke="yellow" points="64,-414.99 0,-414.99 0,-378.99 64,-378.99 64,-414.99"/>
<text text-anchor="middle" x="32" y="-393.29" font-family="Times,serif" font-size="14.00">20 []</text>
</g>
<!-- node_0x556adc628b50&#45;&gt;node_0x556adc628bb0 -->
<g id="edge4" class="edge">
<title>node_0x556adc628b50&#45;&gt;node_0x556adc628bb0</title>
<path fill="none" stroke="black" d="M79.43,-450.69C71.8,-442.21 62.48,-431.86 54.12,-422.57"/>
<polygon fill="black" stroke="black" points="56.69,-420.19 47.39,-415.1 51.48,-424.87 56.69,-420.19"/>
</g>
<!-- node_0x556adc628be0 -->
<g id="node7" class="node">
<title>node_0x556adc628be0</title>
<polygon fill="none" stroke="yellow" points="145.5,-414.99 82.5,-414.99 82.5,-378.99 145.5,-378.99 145.5,-414.99"/>
<text text-anchor="middle" x="114" y="-393.29" font-family="Times,serif" font-size="14.00">302 [.]</text>
</g>
<!-- node_0x556adc628b50&#45;&gt;node_0x556adc628be0 -->
<g id="edge6" class="edge">
<title>node_0x556adc628b50&#45;&gt;node_0x556adc628be0</title>
<path fill="none" stroke="black" d="M99.7,-450.69C101.81,-442.89 104.36,-433.5 106.72,-424.82"/>
<polygon fill="black" stroke="black" points="110.12,-425.66 109.36,-415.1 103.36,-423.83 110.12,-425.66"/>
</g>
<!-- node_0x556adc628b80 -->
<g id="node6" class="node">
<title>node_0x556adc628b80</title>
<polygon fill="none" stroke="green" points="59,-342.99 5,-342.99 5,-306.99 59,-306.99 59,-342.99"/>
<text text-anchor="middle" x="32" y="-321.29" font-family="Times,serif" font-size="14.00">a</text>
</g>
<!-- node_0x556adc628bb0&#45;&gt;node_0x556adc628b80 -->
<g id="edge5" class="edge">
<title>node_0x556adc628bb0&#45;&gt;node_0x556adc628b80</title>
<path fill="none" stroke="black" d="M32,-378.69C32,-370.97 32,-361.7 32,-353.1"/>
<polygon fill="black" stroke="black" points="35.5,-353.1 32,-343.1 28.5,-353.1 35.5,-353.1"/>
</g>
<!-- node_0x556adc628d00 -->
<g id="node10" class="node">
<title>node_0x556adc628d00</title>
<polygon fill="none" stroke="yellow" points="277,-486.99 223,-486.99 223,-450.99 277,-450.99 277,-486.99"/>
<text text-anchor="middle" x="250" y="-465.29" font-family="Times,serif" font-size="14.00">59 [;]</text>
</g>
<!-- node_0x556adc628c40&#45;&gt;node_0x556adc628d00 -->
<g id="edge9" class="edge">
<title>node_0x556adc628c40&#45;&gt;node_0x556adc628d00</title>
<path fill="none" stroke="black" d="M250,-522.69C250,-514.97 250,-505.7 250,-497.1"/>
<polygon fill="black" stroke="black" points="253.5,-497.1 250,-487.1 246.5,-497.1 253.5,-497.1"/>
</g>
<!-- node_0x556adc628cd0 -->
<g id="node11" class="node">
<title>node_0x556adc628cd0</title>
<polygon fill="none" stroke="yellow" points="263,-414.99 201,-414.99 201,-378.99 263,-378.99 263,-414.99"/>
<text text-anchor="middle" x="232" y="-393.29" font-family="Times,serif" font-size="14.00">61 [=]</text>
</g>
<!-- node_0x556adc628d00&#45;&gt;node_0x556adc628cd0 -->
<g id="edge10" class="edge">
<title>node_0x556adc628d00&#45;&gt;node_0x556adc628cd0</title>
<path fill="none" stroke="black" d="M245.55,-450.69C243.55,-442.89 241.13,-433.5 238.9,-424.82"/>
<polygon fill="black" stroke="black" points="242.28,-423.91 236.4,-415.1 235.5,-425.65 242.28,-423.91"/>
</g>
<!-- node_0x556adc628d30 -->
<g id="node14" class="node">
<title>node_0x556adc628d30</title>
<polygon fill="none" stroke="yellow" points="349,-414.99 281,-414.99 281,-378.99 349,-378.99 349,-414.99"/>
<text text-anchor="middle" x="315" y="-393.29" font-family="Times,serif" font-size="14.00">123 [{]</text>
</g>
<!-- node_0x556adc628d00&#45;&gt;node_0x556adc628d30 -->
<g id="edge13" class="edge">
<title>node_0x556adc628d00&#45;&gt;node_0x556adc628d30</title>
<path fill="none" stroke="black" d="M266.07,-450.69C273.94,-442.21 283.56,-431.86 292.17,-422.57"/>
<polygon fill="black" stroke="black" points="294.88,-424.81 299.12,-415.1 289.75,-420.04 294.88,-424.81"/>
</g>
<!-- node_0x556adc628c70 -->
<g id="node12" class="node">
<title>node_0x556adc628c70</title>
<polygon fill="none" stroke="green" points="201,-342.99 147,-342.99 147,-306.99 201,-306.99 201,-342.99"/>
<text text-anchor="middle" x="174" y="-321.29" font-family="Times,serif" font-size="14.00">a</text>
</g>
<!-- node_0x556adc628cd0&#45;&gt;node_0x556adc628c70 -->
<g id="edge11" class="edge">
<title>node_0x556adc628cd0&#45;&gt;node_0x556adc628c70</title>
<path fill="none" stroke="black" d="M217.66,-378.69C210.71,-370.3 202.23,-360.06 194.6,-350.85"/>
<polygon fill="black" stroke="black" points="197.25,-348.56 188.17,-343.1 191.86,-353.03 197.25,-348.56"/>
</g>
<!-- node_0x556adc628ca0 -->
<g id="node13" class="node">
<title>node_0x556adc628ca0</title>
<ellipse fill="none" stroke="violet" cx="237" cy="-324.99" rx="18" ry="18"/>
<text text-anchor="middle" x="237" y="-321.29" font-family="Times,serif" font-size="14.00">5</text>
</g>
<!-- node_0x556adc628cd0&#45;&gt;node_0x556adc628ca0 -->
<g id="edge12" class="edge">
<title>node_0x556adc628cd0&#45;&gt;node_0x556adc628ca0</title>
<path fill="none" stroke="black" d="M233.24,-378.69C233.79,-370.97 234.45,-361.7 235.06,-353.1"/>
<polygon fill="black" stroke="black" points="238.56,-353.32 235.78,-343.1 231.57,-352.82 238.56,-353.32"/>
</g>
<!-- node_0x556adc628dc0 -->
<g id="node15" class="node">
<title>node_0x556adc628dc0</title>
<polygon fill="none" stroke="yellow" points="337,-342.99 283,-342.99 283,-306.99 337,-306.99 337,-342.99"/>
<text text-anchor="middle" x="310" y="-321.29" font-family="Times,serif" font-size="14.00">59 [;]</text>
</g>
<!-- node_0x556adc628d30&#45;&gt;node_0x556adc628dc0 -->
<g id="edge14" class="edge">
<title>node_0x556adc628d30&#45;&gt;node_0x556adc628dc0</title>
<path fill="none" stroke="black" d="M313.76,-378.69C313.21,-370.97 312.55,-361.7 311.94,-353.1"/>
<polygon fill="black" stroke="black" points="315.43,-352.82 311.22,-343.1 308.44,-353.32 315.43,-352.82"/>
</g>
<!-- node_0x556adc628fa0 -->
<g id="node27" class="node">
<title>node_0x556adc628fa0</title>
<polygon fill="none" stroke="yellow" points="470,-342.99 402,-342.99 402,-306.99 470,-306.99 470,-342.99"/>
<text text-anchor="middle" x="436" y="-321.29" font-family="Times,serif" font-size="14.00">123 [{]</text>
</g>
<!-- node_0x556adc628d30&#45;&gt;node_0x556adc628fa0 -->
<g id="edge26" class="edge">
<title>node_0x556adc628d30&#45;&gt;node_0x556adc628fa0</title>
<path fill="none" stroke="black" d="M344.6,-378.87C360.57,-369.63 380.46,-358.12 397.61,-348.2"/>
<polygon fill="black" stroke="black" points="399.38,-351.22 406.29,-343.18 395.88,-345.16 399.38,-351.22"/>
</g>
<!-- node_0x556adc628d90 -->
<g id="node16" class="node">
<title>node_0x556adc628d90</title>
<polygon fill="none" stroke="yellow" points="246.5,-270.99 179.5,-270.99 179.5,-234.99 246.5,-234.99 246.5,-270.99"/>
<text text-anchor="middle" x="213" y="-249.29" font-family="Times,serif" font-size="14.00">101 [e]</text>
</g>
<!-- node_0x556adc628dc0&#45;&gt;node_0x556adc628d90 -->
<g id="edge15" class="edge">
<title>node_0x556adc628dc0&#45;&gt;node_0x556adc628d90</title>
<path fill="none" stroke="black" d="M286.02,-306.69C273.69,-297.79 258.48,-286.82 245.15,-277.19"/>
<polygon fill="black" stroke="black" points="246.86,-274.11 236.7,-271.1 242.76,-279.79 246.86,-274.11"/>
</g>
<!-- node_0x556adc628e80 -->
<g id="node18" class="node">
<title>node_0x556adc628e80</title>
<polygon fill="none" stroke="yellow" points="337,-270.99 283,-270.99 283,-234.99 337,-234.99 337,-270.99"/>
<text text-anchor="middle" x="310" y="-249.29" font-family="Times,serif" font-size="14.00">59 [;]</text>
</g>
<!-- node_0x556adc628dc0&#45;&gt;node_0x556adc628e80 -->
<g id="edge17" class="edge">
<title>node_0x556adc628dc0&#45;&gt;node_0x556adc628e80</title>
<path fill="none" stroke="black" d="M310,-306.69C310,-298.97 310,-289.7 310,-281.1"/>
<polygon fill="black" stroke="black" points="313.5,-281.1 310,-271.1 306.5,-281.1 313.5,-281.1"/>
</g>
<!-- node_0x556adc628d60 -->
<g id="node17" class="node">
<title>node_0x556adc628d60</title>
<ellipse fill="none" stroke="violet" cx="195" cy="-176.24" rx="23" ry="23"/>
<text text-anchor="middle" x="195" y="-172.54" font-family="Times,serif" font-size="14.00">88</text>
</g>
<!-- node_0x556adc628d90&#45;&gt;node_0x556adc628d60 -->
<g id="edge16" class="edge">
<title>node_0x556adc628d90&#45;&gt;node_0x556adc628d60</title>
<path fill="none" stroke="black" d="M208.83,-234.66C206.94,-226.82 204.65,-217.32 202.48,-208.32"/>
<polygon fill="black" stroke="black" points="205.86,-207.39 200.12,-198.49 199.05,-209.03 205.86,-207.39"/>
</g>
<!-- node_0x556adc628e20 -->
<g id="node19" class="node">
<title>node_0x556adc628e20</title>
<polygon fill="none" stroke="yellow" points="300,-194.24 236,-194.24 236,-158.24 300,-158.24 300,-194.24"/>
<text text-anchor="middle" x="268" y="-172.54" font-family="Times,serif" font-size="14.00">20 []</text>
</g>
<!-- node_0x556adc628e80&#45;&gt;node_0x556adc628e20 -->
<g id="edge18" class="edge">
<title>node_0x556adc628e80&#45;&gt;node_0x556adc628e20</title>
<path fill="none" stroke="black" d="M300.26,-234.66C295.06,-225.41 288.56,-213.84 282.76,-203.52"/>
<polygon fill="black" stroke="black" points="285.64,-201.49 277.69,-194.49 279.54,-204.92 285.64,-201.49"/>
</g>
<!-- node_0x556adc628f10 -->
<g id="node22" class="node">
<title>node_0x556adc628f10</title>
<polygon fill="none" stroke="yellow" points="372,-194.24 318,-194.24 318,-158.24 372,-158.24 372,-194.24"/>
<text text-anchor="middle" x="345" y="-172.54" font-family="Times,serif" font-size="14.00">59 [;]</text>
</g>
<!-- node_0x556adc628e80&#45;&gt;node_0x556adc628f10 -->
<g id="edge21" class="edge">
<title>node_0x556adc628e80&#45;&gt;node_0x556adc628f10</title>
<path fill="none" stroke="black" d="M318.12,-234.66C322.4,-225.5 327.75,-214.08 332.55,-203.83"/>
<polygon fill="black" stroke="black" points="335.86,-205.03 336.93,-194.49 329.52,-202.06 335.86,-205.03"/>
</g>
<!-- node_0x556adc628df0 -->
<g id="node20" class="node">
<title>node_0x556adc628df0</title>
<polygon fill="none" stroke="green" points="232,-112.75 178,-112.75 178,-76.75 232,-76.75 232,-112.75"/>
<text text-anchor="middle" x="205" y="-91.05" font-family="Times,serif" font-size="14.00">a</text>
</g>
<!-- node_0x556adc628e20&#45;&gt;node_0x556adc628df0 -->
<g id="edge19" class="edge">
<title>node_0x556adc628e20&#45;&gt;node_0x556adc628df0</title>
<path fill="none" stroke="black" d="M254.33,-157.99C245.74,-147.16 234.52,-133 224.95,-120.93"/>
<polygon fill="black" stroke="black" points="227.6,-118.63 218.64,-112.96 222.11,-122.97 227.6,-118.63"/>
</g>
<!-- node_0x556adc628e50 -->
<g id="node21" class="node">
<title>node_0x556adc628e50</title>
<ellipse fill="none" stroke="violet" cx="268" cy="-94.75" rx="18" ry="18"/>
<text text-anchor="middle" x="268" y="-91.05" font-family="Times,serif" font-size="14.00">1</text>
</g>
<!-- node_0x556adc628e20&#45;&gt;node_0x556adc628e50 -->
<g id="edge20" class="edge">
<title>node_0x556adc628e20&#45;&gt;node_0x556adc628e50</title>
<path fill="none" stroke="black" d="M268,-157.99C268,-147.79 268,-134.62 268,-123.03"/>
<polygon fill="black" stroke="black" points="271.5,-122.96 268,-112.96 264.5,-122.96 271.5,-122.96"/>
</g>
<!-- node_0x556adc628ee0 -->
<g id="node23" class="node">
<title>node_0x556adc628ee0</title>
<polygon fill="none" stroke="yellow" points="372,-112.75 304,-112.75 304,-76.75 372,-76.75 372,-112.75"/>
<text text-anchor="middle" x="338" y="-91.05" font-family="Times,serif" font-size="14.00">100 [d]</text>
</g>
<!-- node_0x556adc628f10&#45;&gt;node_0x556adc628ee0 -->
<g id="edge22" class="edge">
<title>node_0x556adc628f10&#45;&gt;node_0x556adc628ee0</title>
<path fill="none" stroke="black" d="M343.48,-157.99C342.58,-147.79 341.42,-134.62 340.4,-123.03"/>
<polygon fill="black" stroke="black" points="343.88,-122.62 339.52,-112.96 336.91,-123.23 343.88,-122.62"/>
</g>
<!-- node_0x556adc628f70 -->
<g id="node25" class="node">
<title>node_0x556adc628f70</title>
<polygon fill="none" stroke="yellow" points="444,-112.75 390,-112.75 390,-76.75 444,-76.75 444,-112.75"/>
<text text-anchor="middle" x="417" y="-91.05" font-family="Times,serif" font-size="14.00">59 [;]</text>
</g>
<!-- node_0x556adc628f10&#45;&gt;node_0x556adc628f70 -->
<g id="edge24" class="edge">
<title>node_0x556adc628f10&#45;&gt;node_0x556adc628f70</title>
<path fill="none" stroke="black" d="M360.62,-157.99C370.53,-147.06 383.51,-132.73 394.51,-120.58"/>
<polygon fill="black" stroke="black" points="397.29,-122.73 401.41,-112.96 392.1,-118.03 397.29,-122.73"/>
</g>
<!-- node_0x556adc628eb0 -->
<g id="node24" class="node">
<title>node_0x556adc628eb0</title>
<polygon fill="none" stroke="green" points="365,-36 311,-36 311,0 365,0 365,-36"/>
<text text-anchor="middle" x="338" y="-14.3" font-family="Times,serif" font-size="14.00">a</text>
</g>
<!-- node_0x556adc628ee0&#45;&gt;node_0x556adc628eb0 -->
<g id="edge23" class="edge">
<title>node_0x556adc628ee0&#45;&gt;node_0x556adc628eb0</title>
<path fill="none" stroke="black" d="M338,-76.41C338,-67.54 338,-56.54 338,-46.54"/>
<polygon fill="black" stroke="black" points="341.5,-46.24 338,-36.24 334.5,-46.24 341.5,-46.24"/>
</g>
<!-- node_0x556adc628f40 -->
<g id="node26" class="node">
<title>node_0x556adc628f40</title>
<polygon fill="none" stroke="yellow" points="451,-36 383,-36 383,0 451,0 451,-36"/>
<text text-anchor="middle" x="417" y="-14.3" font-family="Times,serif" font-size="14.00">100 [d]</text>
</g>
<!-- node_0x556adc628f70&#45;&gt;node_0x556adc628f40 -->
<g id="edge25" class="edge">
<title>node_0x556adc628f70&#45;&gt;node_0x556adc628f40</title>
<path fill="none" stroke="black" d="M417,-76.41C417,-67.54 417,-56.54 417,-46.54"/>
<polygon fill="black" stroke="black" points="420.5,-46.24 417,-36.24 413.5,-46.24 420.5,-46.24"/>
</g>
<!-- node_0x556adc629030 -->
<g id="node28" class="node">
<title>node_0x556adc629030</title>
<polygon fill="none" stroke="yellow" points="511,-270.99 457,-270.99 457,-234.99 511,-234.99 511,-270.99"/>
<text text-anchor="middle" x="484" y="-249.29" font-family="Times,serif" font-size="14.00">59 [;]</text>
</g>
<!-- node_0x556adc628fa0&#45;&gt;node_0x556adc629030 -->
<g id="edge27" class="edge">
<title>node_0x556adc628fa0&#45;&gt;node_0x556adc629030</title>
<path fill="none" stroke="black" d="M447.87,-306.69C453.5,-298.47 460.35,-288.48 466.57,-279.41"/>
<polygon fill="black" stroke="black" points="469.5,-281.32 472.27,-271.1 463.73,-277.36 469.5,-281.32"/>
</g>
<!-- node_0x556adc629000 -->
<g id="node29" class="node">
<title>node_0x556adc629000</title>
<polygon fill="none" stroke="yellow" points="517.5,-194.24 450.5,-194.24 450.5,-158.24 517.5,-158.24 517.5,-194.24"/>
<text text-anchor="middle" x="484" y="-172.54" font-family="Times,serif" font-size="14.00">101 [e]</text>
</g>
<!-- node_0x556adc629030&#45;&gt;node_0x556adc629000 -->
<g id="edge28" class="edge">
<title>node_0x556adc629030&#45;&gt;node_0x556adc629000</title>
<path fill="none" stroke="black" d="M484,-234.66C484,-225.79 484,-214.78 484,-204.79"/>
<polygon fill="black" stroke="black" points="487.5,-204.49 484,-194.49 480.5,-204.49 487.5,-204.49"/>
</g>
<!-- node_0x556adc6290c0 -->
<g id="node31" class="node">
<title>node_0x556adc6290c0</title>
<polygon fill="none" stroke="yellow" points="590,-194.24 536,-194.24 536,-158.24 590,-158.24 590,-194.24"/>
<text text-anchor="middle" x="563" y="-172.54" font-family="Times,serif" font-size="14.00">59 [;]</text>
</g>
<!-- node_0x556adc629030&#45;&gt;node_0x556adc6290c0 -->
<g id="edge30" class="edge">
<title>node_0x556adc629030&#45;&gt;node_0x556adc6290c0</title>
<path fill="none" stroke="black" d="M502.32,-234.66C512.69,-224.84 525.83,-212.42 537.22,-201.64"/>
<polygon fill="black" stroke="black" points="539.92,-203.9 544.78,-194.49 535.11,-198.82 539.92,-203.9"/>
</g>
<!-- node_0x556adc628fd0 -->
<g id="node30" class="node">
<title>node_0x556adc628fd0</title>
<ellipse fill="none" stroke="violet" cx="485" cy="-94.75" rx="23" ry="23"/>
<text text-anchor="middle" x="485" y="-91.05" font-family="Times,serif" font-size="14.00">89</text>
</g>
<!-- node_0x556adc629000&#45;&gt;node_0x556adc628fd0 -->
<g id="edge29" class="edge">
<title>node_0x556adc629000&#45;&gt;node_0x556adc628fd0</title>
<path fill="none" stroke="black" d="M484.22,-157.99C484.33,-149.09 484.47,-137.94 484.6,-127.54"/>
<polygon fill="black" stroke="black" points="488.1,-127.56 484.73,-117.51 481.1,-127.47 488.1,-127.56"/>
</g>
<!-- node_0x556adc629090 -->
<g id="node32" class="node">
<title>node_0x556adc629090</title>
<polygon fill="none" stroke="yellow" points="596,-112.75 528,-112.75 528,-76.75 596,-76.75 596,-112.75"/>
<text text-anchor="middle" x="562" y="-91.05" font-family="Times,serif" font-size="14.00">100 [d]</text>
</g>
<!-- node_0x556adc6290c0&#45;&gt;node_0x556adc629090 -->
<g id="edge31" class="edge">
<title>node_0x556adc6290c0&#45;&gt;node_0x556adc629090</title>
<path fill="none" stroke="black" d="M562.78,-157.99C562.65,-147.79 562.49,-134.62 562.34,-123.03"/>
<polygon fill="black" stroke="black" points="565.84,-122.92 562.22,-112.96 558.84,-123.01 565.84,-122.92"/>
</g>
<!-- node_0x556adc629120 -->
<g id="node34" class="node">
<title>node_0x556adc629120</title>
<polygon fill="none" stroke="yellow" points="668,-112.75 614,-112.75 614,-76.75 668,-76.75 668,-112.75"/>
<text text-anchor="middle" x="641" y="-91.05" font-family="Times,serif" font-size="14.00">59 [;]</text>
</g>
<!-- node_0x556adc6290c0&#45;&gt;node_0x556adc629120 -->
<g id="edge33" class="edge">
<title>node_0x556adc6290c0&#45;&gt;node_0x556adc629120</title>
<path fill="none" stroke="black" d="M579.92,-157.99C590.76,-146.95 604.98,-132.46 616.98,-120.23"/>
<polygon fill="black" stroke="black" points="619.6,-122.55 624.11,-112.96 614.61,-117.65 619.6,-122.55"/>
</g>
<!-- node_0x556adc629060 -->
<g id="node33" class="node">
<title>node_0x556adc629060</title>
<polygon fill="none" stroke="green" points="589,-36 535,-36 535,0 589,0 589,-36"/>
<text text-anchor="middle" x="562" y="-14.3" font-family="Times,serif" font-size="14.00">a</text>
</g>
<!-- node_0x556adc629090&#45;&gt;node_0x556adc629060 -->
<g id="edge32" class="edge">
<title>node_0x556adc629090&#45;&gt;node_0x556adc629060</title>
<path fill="none" stroke="black" d="M562,-76.41C562,-67.54 562,-56.54 562,-46.54"/>
<polygon fill="black" stroke="black" points="565.5,-46.24 562,-36.24 558.5,-46.24 565.5,-46.24"/>
</g>
<!-- node_0x556adc6290f0 -->
<g id="node35" class="node">
<title>node_0x556adc6290f0</title>
<polygon fill="none" stroke="yellow" points="675,-36 607,-36 607,0 675,0 675,-36"/>
<text text-anchor="middle" x="641" y="-14.3" font-family="Times,serif" font-size="14.00">100 [d]</text>
</g>
<!-- node_0x556adc629120&#45;&gt;node_0x556adc6290f0 -->
<g id="edge34" class="edge">
<title>node_0x556adc629120&#45;&gt;node_0x556adc6290f0</title>
<path fill="none" stroke="black" d="M641,-76.41C641,-67.54 641,-56.54 641,-46.54"/>
<polygon fill="black" stroke="black" points="644.5,-46.24 641,-36.24 637.5,-46.24 644.5,-46.24"/>
</g>
</g>
</svg>
