<?xml version="1.0" encoding="UTF-8" standalone="no"?>
<!DOCTYPE svg PUBLIC "-//W3C//DTD SVG 1.1//EN"
 "http://www.w3.org/Graphics/SVG/1.1/DTD/svg11.dtd">
<!-- Generated by graphviz version 2.43.0 (0)
 -->
<!-- Title: list Pages: 1 -->
<svg width="1811pt" height="1313pt"
 viewBox="0.00 0.00 1811.17 1312.76" xmlns="http://www.w3.org/2000/svg" xmlns:xlink="http://www.w3.org/1999/xlink">
<g id="graph0" class="graph" transform="scale(1 1) rotate(0) translate(4 1308.76)">
<title>list</title>
<polygon fill="white" stroke="transparent" points="-4,4 -4,-1308.76 1807.17,-1308.76 1807.17,4 -4,4"/>
<!-- node_0x55e5c0005c20 -->
<g id="node1" class="node">
<title>node_0x55e5c0005c20</title>
<polygon fill="#ffcccc" stroke="black" points="834.48,-1274.95 861.48,-1259.09 888.48,-1274.95 888.46,-1300.61 834.51,-1300.61 834.48,-1274.95"/>
<text text-anchor="middle" x="861.48" y="-1278.24" font-family="Times,serif" font-size="16.00">{</text>
</g>
<!-- node_0x55e5c0005fb0 -->
<g id="node2" class="node">
<title>node_0x55e5c0005fb0</title>
<polygon fill="#ffcccc" stroke="black" points="834.48,-1193.5 861.48,-1177.64 888.48,-1193.5 888.46,-1219.16 834.51,-1219.16 834.48,-1193.5"/>
<text text-anchor="middle" x="861.48" y="-1196.79" font-family="Times,serif" font-size="16.00">;</text>
</g>
<!-- node_0x55e5c0005c20&#45;&gt;node_0x55e5c0005fb0 -->
<g id="edge1" class="edge">
<title>node_0x55e5c0005c20&#45;&gt;node_0x55e5c0005fb0</title>
<path fill="none" stroke="black" d="M861.48,-1258.91C861.48,-1249.83 861.48,-1239.22 861.48,-1229.62"/>
<polygon fill="black" stroke="black" points="864.98,-1229.33 861.48,-1219.33 857.98,-1229.33 864.98,-1229.33"/>
</g>
<!-- node_0x55e5c0005f80 -->
<g id="node3" class="node">
<title>node_0x55e5c0005f80</title>
<polygon fill="#ccccff" stroke="black" points="474.85,-1113.58 562.48,-1101.14 650.12,-1113.58 650.04,-1133.7 474.93,-1133.7 474.85,-1113.58"/>
<text text-anchor="middle" x="562.48" y="-1115.44" font-family="Times,serif" font-size="14.00">FUNC_DECL</text>
</g>
<!-- node_0x55e5c0005fb0&#45;&gt;node_0x55e5c0005f80 -->
<g id="edge2" class="edge">
<title>node_0x55e5c0005fb0&#45;&gt;node_0x55e5c0005f80</title>
<path fill="none" stroke="black" d="M835.73,-1192.75C788.91,-1180.3 688.66,-1153.67 623.48,-1136.35"/>
<polygon fill="black" stroke="black" points="624.3,-1132.94 613.73,-1133.76 622.5,-1139.71 624.3,-1132.94"/>
</g>
<!-- node_0x55e5c00062e0 -->
<g id="node20" class="node">
<title>node_0x55e5c00062e0</title>
<polygon fill="#ffcccc" stroke="black" points="1019.48,-1112.05 1046.48,-1096.19 1073.48,-1112.05 1073.46,-1137.71 1019.51,-1137.71 1019.48,-1112.05"/>
<text text-anchor="middle" x="1046.48" y="-1115.34" font-family="Times,serif" font-size="16.00">;</text>
</g>
<!-- node_0x55e5c0005fb0&#45;&gt;node_0x55e5c00062e0 -->
<g id="edge19" class="edge">
<title>node_0x55e5c0005fb0&#45;&gt;node_0x55e5c00062e0</title>
<path fill="none" stroke="black" d="M883.43,-1190.16C914.62,-1176.77 972.16,-1152.06 1009.87,-1135.86"/>
<polygon fill="black" stroke="black" points="1011.67,-1138.9 1019.48,-1131.74 1008.91,-1132.47 1011.67,-1138.9"/>
</g>
<!-- node_0x55e5c0005dd0 -->
<g id="node4" class="node">
<title>node_0x55e5c0005dd0</title>
<polygon fill="#ccccff" stroke="black" points="347.17,-1032.13 432.48,-1019.69 517.8,-1032.13 517.72,-1052.25 347.25,-1052.25 347.17,-1032.13"/>
<text text-anchor="middle" x="432.48" y="-1033.99" font-family="Times,serif" font-size="14.00">FUNC_INFO</text>
</g>
<!-- node_0x55e5c0005f80&#45;&gt;node_0x55e5c0005dd0 -->
<g id="edge3" class="edge">
<title>node_0x55e5c0005f80&#45;&gt;node_0x55e5c0005dd0</title>
<path fill="none" stroke="black" d="M539.84,-1104.3C518.68,-1091.37 486.92,-1071.96 463.43,-1057.6"/>
<polygon fill="black" stroke="black" points="465.23,-1054.6 454.87,-1052.37 461.58,-1060.57 465.23,-1054.6"/>
</g>
<!-- node_0x55e5c0005e00 -->
<g id="node13" class="node">
<title>node_0x55e5c0005e00</title>
<polygon fill="#ffcccc" stroke="black" points="535.48,-1030.6 562.48,-1014.74 589.48,-1030.6 589.46,-1056.26 535.51,-1056.26 535.48,-1030.6"/>
<text text-anchor="middle" x="562.48" y="-1033.89" font-family="Times,serif" font-size="16.00">{</text>
</g>
<!-- node_0x55e5c0005f80&#45;&gt;node_0x55e5c0005e00 -->
<g id="edge12" class="edge">
<title>node_0x55e5c0005f80&#45;&gt;node_0x55e5c0005e00</title>
<path fill="none" stroke="black" d="M562.48,-1100.9C562.48,-1090.94 562.48,-1078.17 562.48,-1066.79"/>
<polygon fill="black" stroke="black" points="565.98,-1066.44 562.48,-1056.44 558.98,-1066.44 565.98,-1066.44"/>
</g>
<!-- node_0x55e5c0005c80 -->
<g id="node5" class="node">
<title>node_0x55e5c0005c80</title>
<polygon fill="#ccccff" stroke="black" points="148.29,-942.85 266.48,-930.42 384.68,-942.85 384.56,-962.98 148.4,-962.98 148.29,-942.85"/>
<text text-anchor="middle" x="266.48" y="-944.72" font-family="Times,serif" font-size="14.00">FUNC_ARG_DECL</text>
</g>
<!-- node_0x55e5c0005dd0&#45;&gt;node_0x55e5c0005c80 -->
<g id="edge4" class="edge">
<title>node_0x55e5c0005dd0&#45;&gt;node_0x55e5c0005c80</title>
<path fill="none" stroke="black" d="M406.91,-1023.24C378.6,-1008.36 332.81,-984.29 301.26,-967.7"/>
<polygon fill="black" stroke="black" points="302.84,-964.58 292.36,-963.02 299.58,-970.77 302.84,-964.58"/>
</g>
<!-- node_0x55e5c0005c50 -->
<g id="node12" class="node">
<title>node_0x55e5c0005c50</title>
<ellipse fill="#ccffff" stroke="black" cx="433.48" cy="-948.42" rx="30.59" ry="30.59"/>
<text text-anchor="middle" x="433.48" y="-944.72" font-family="Times,serif" font-size="14.00">sum</text>
</g>
<!-- node_0x55e5c0005dd0&#45;&gt;node_0x55e5c0005c50 -->
<g id="edge11" class="edge">
<title>node_0x55e5c0005dd0&#45;&gt;node_0x55e5c0005c50</title>
<path fill="none" stroke="black" d="M432.68,-1019.45C432.78,-1010.71 432.91,-999.72 433.03,-989.05"/>
<polygon fill="black" stroke="black" points="436.53,-989.04 433.14,-979 429.53,-988.96 436.53,-989.04"/>
</g>
<!-- node_0x55e5c0005ce0 -->
<g id="node6" class="node">
<title>node_0x55e5c0005ce0</title>
<polygon fill="#ccccff" stroke="black" points="0.02,-851.61 67.48,-839.17 134.95,-851.61 134.89,-871.73 0.08,-871.73 0.02,-851.61"/>
<text text-anchor="middle" x="67.48" y="-853.47" font-family="Times,serif" font-size="14.00">VAR_DEF</text>
</g>
<!-- node_0x55e5c0005c80&#45;&gt;node_0x55e5c0005ce0 -->
<g id="edge5" class="edge">
<title>node_0x55e5c0005c80&#45;&gt;node_0x55e5c0005ce0</title>
<path fill="none" stroke="black" d="M235.39,-933.47C200.82,-917.97 144.91,-892.9 107.2,-875.98"/>
<polygon fill="black" stroke="black" points="108.59,-872.77 98.03,-871.87 105.72,-879.16 108.59,-872.77"/>
</g>
<!-- node_0x55e5c0005d10 -->
<g id="node8" class="node">
<title>node_0x55e5c0005d10</title>
<polygon fill="#ccccff" stroke="black" points="153.29,-851.61 271.48,-839.17 389.68,-851.61 389.56,-871.73 153.4,-871.73 153.29,-851.61"/>
<text text-anchor="middle" x="271.48" y="-853.47" font-family="Times,serif" font-size="14.00">FUNC_ARG_DECL</text>
</g>
<!-- node_0x55e5c0005c80&#45;&gt;node_0x55e5c0005d10 -->
<g id="edge7" class="edge">
<title>node_0x55e5c0005c80&#45;&gt;node_0x55e5c0005d10</title>
<path fill="none" stroke="black" d="M267.45,-930.21C268.21,-916.51 269.3,-897.19 270.15,-882.01"/>
<polygon fill="black" stroke="black" points="273.65,-882 270.72,-871.82 266.66,-881.61 273.65,-882"/>
</g>
<!-- node_0x55e5c0005cb0 -->
<g id="node7" class="node">
<title>node_0x55e5c0005cb0</title>
<ellipse fill="#ccffff" stroke="black" cx="67.48" cy="-762.68" rx="18" ry="18"/>
<text text-anchor="middle" x="67.48" y="-758.98" font-family="Times,serif" font-size="14.00">x</text>
</g>
<!-- node_0x55e5c0005ce0&#45;&gt;node_0x55e5c0005cb0 -->
<g id="edge6" class="edge">
<title>node_0x55e5c0005ce0&#45;&gt;node_0x55e5c0005cb0</title>
<path fill="none" stroke="black" d="M67.48,-838.77C67.48,-825.25 67.48,-806.25 67.48,-790.75"/>
<polygon fill="black" stroke="black" points="70.98,-790.68 67.48,-780.68 63.98,-790.68 70.98,-790.68"/>
</g>
<!-- node_0x55e5c0005d70 -->
<g id="node9" class="node">
<title>node_0x55e5c0005d70</title>
<polygon fill="#ccccff" stroke="black" points="105.02,-757.11 172.48,-744.68 239.95,-757.11 239.89,-777.24 105.08,-777.24 105.02,-757.11"/>
<text text-anchor="middle" x="172.48" y="-758.98" font-family="Times,serif" font-size="14.00">VAR_DEF</text>
</g>
<!-- node_0x55e5c0005d10&#45;&gt;node_0x55e5c0005d70 -->
<g id="edge8" class="edge">
<title>node_0x55e5c0005d10&#45;&gt;node_0x55e5c0005d70</title>
<path fill="none" stroke="black" d="M254.69,-840.48C238.23,-825.11 213.05,-801.57 194.89,-784.61"/>
<polygon fill="black" stroke="black" points="196.79,-781.6 187.1,-777.33 192.02,-786.72 196.79,-781.6"/>
</g>
<!-- node_0x55e5c0005da0 -->
<g id="node11" class="node">
<title>node_0x55e5c0005da0</title>
<polygon fill="#ccccff" stroke="black" points="258.29,-757.11 376.48,-744.68 494.68,-757.11 494.56,-777.24 258.4,-777.24 258.29,-757.11"/>
<text text-anchor="middle" x="376.48" y="-758.98" font-family="Times,serif" font-size="14.00">FUNC_ARG_DECL</text>
</g>
<!-- node_0x55e5c0005d10&#45;&gt;node_0x55e5c0005da0 -->
<g id="edge10" class="edge">
<title>node_0x55e5c0005d10&#45;&gt;node_0x55e5c0005da0</title>
<path fill="none" stroke="black" d="M288.82,-840.9C306.43,-825.38 333.81,-801.27 353.28,-784.11"/>
<polygon fill="black" stroke="black" points="355.64,-786.7 360.83,-777.46 351.02,-781.45 355.64,-786.7"/>
</g>
<!-- node_0x55e5c0005d40 -->
<g id="node10" class="node">
<title>node_0x55e5c0005d40</title>
<ellipse fill="#ccffff" stroke="black" cx="172.48" cy="-664.28" rx="18" ry="18"/>
<text text-anchor="middle" x="172.48" y="-660.58" font-family="Times,serif" font-size="14.00">y</text>
</g>
<!-- node_0x55e5c0005d70&#45;&gt;node_0x55e5c0005d40 -->
<g id="edge9" class="edge">
<title>node_0x55e5c0005d70&#45;&gt;node_0x55e5c0005d40</title>
<path fill="none" stroke="black" d="M172.48,-744.44C172.48,-730.05 172.48,-709.27 172.48,-692.61"/>
<polygon fill="black" stroke="black" points="175.98,-692.37 172.48,-682.37 168.98,-692.37 175.98,-692.37"/>
</g>
<!-- node_0x55e5c0005f50 -->
<g id="node14" class="node">
<title>node_0x55e5c0005f50</title>
<polygon fill="#ffcccc" stroke="black" points="534.48,-941.32 561.48,-925.47 588.48,-941.32 588.46,-966.99 534.51,-966.99 534.48,-941.32"/>
<text text-anchor="middle" x="561.48" y="-944.62" font-family="Times,serif" font-size="16.00">;</text>
</g>
<!-- node_0x55e5c0005e00&#45;&gt;node_0x55e5c0005f50 -->
<g id="edge13" class="edge">
<title>node_0x55e5c0005e00&#45;&gt;node_0x55e5c0005f50</title>
<path fill="none" stroke="black" d="M562.23,-1014.67C562.1,-1003.26 561.94,-989.22 561.8,-977.09"/>
<polygon fill="black" stroke="black" points="565.3,-977 561.69,-967.04 558.3,-977.08 565.3,-977"/>
</g>
<!-- node_0x55e5c0005f20 -->
<g id="node15" class="node">
<title>node_0x55e5c0005f20</title>
<polygon fill="#ccccff" stroke="black" points="505.9,-851.61 551.48,-839.17 597.07,-851.61 597.03,-871.73 505.94,-871.73 505.9,-851.61"/>
<text text-anchor="middle" x="551.48" y="-853.47" font-family="Times,serif" font-size="14.00">EXPR</text>
</g>
<!-- node_0x55e5c0005f50&#45;&gt;node_0x55e5c0005f20 -->
<g id="edge14" class="edge">
<title>node_0x55e5c0005f50&#45;&gt;node_0x55e5c0005f20</title>
<path fill="none" stroke="black" d="M559.16,-926.72C557.67,-913.39 555.72,-896.02 554.16,-882.1"/>
<polygon fill="black" stroke="black" points="557.6,-881.37 553.01,-871.82 550.65,-882.15 557.6,-881.37"/>
</g>
<!-- node_0x55e5c0005e30 -->
<g id="node16" class="node">
<title>node_0x55e5c0005e30</title>
<polygon fill="#ccccff" stroke="black" points="513.96,-757.11 551.48,-744.68 589,-757.11 588.97,-777.24 514,-777.24 513.96,-757.11"/>
<text text-anchor="middle" x="551.48" y="-758.98" font-family="Times,serif" font-size="14.00">RET</text>
</g>
<!-- node_0x55e5c0005f20&#45;&gt;node_0x55e5c0005e30 -->
<g id="edge15" class="edge">
<title>node_0x55e5c0005f20&#45;&gt;node_0x55e5c0005e30</title>
<path fill="none" stroke="black" d="M551.48,-838.77C551.48,-824.32 551.48,-803.6 551.48,-787.58"/>
<polygon fill="black" stroke="black" points="554.98,-787.38 551.48,-777.38 547.98,-787.38 554.98,-787.38"/>
</g>
<!-- node_0x55e5c0005ef0 -->
<g id="node17" class="node">
<title>node_0x55e5c0005ef0</title>
<polygon fill="#ffcccc" stroke="black" points="524.48,-657.19 551.48,-641.33 578.48,-657.19 578.46,-682.85 524.51,-682.85 524.48,-657.19"/>
<text text-anchor="middle" x="551.48" y="-660.48" font-family="Times,serif" font-size="16.00">+</text>
</g>
<!-- node_0x55e5c0005e30&#45;&gt;node_0x55e5c0005ef0 -->
<g id="edge16" class="edge">
<title>node_0x55e5c0005e30&#45;&gt;node_0x55e5c0005ef0</title>
<path fill="none" stroke="black" d="M551.48,-744.44C551.48,-730.23 551.48,-709.78 551.48,-693.23"/>
<polygon fill="black" stroke="black" points="554.98,-693.02 551.48,-683.02 547.98,-693.02 554.98,-693.02"/>
</g>
<!-- node_0x55e5c0005e90 -->
<g id="node18" class="node">
<title>node_0x55e5c0005e90</title>
<ellipse fill="#ccffff" stroke="black" cx="524.48" cy="-581.69" rx="18" ry="18"/>
<text text-anchor="middle" x="524.48" y="-577.99" font-family="Times,serif" font-size="14.00">x</text>
</g>
<!-- node_0x55e5c0005ef0&#45;&gt;node_0x55e5c0005e90 -->
<g id="edge17" class="edge">
<title>node_0x55e5c0005ef0&#45;&gt;node_0x55e5c0005e90</title>
<path fill="none" stroke="black" d="M545.22,-644.59C541.65,-633.94 537.13,-620.44 533.22,-608.76"/>
<polygon fill="black" stroke="black" points="536.48,-607.46 529.98,-599.09 529.84,-609.69 536.48,-607.46"/>
</g>
<!-- node_0x55e5c0005ec0 -->
<g id="node19" class="node">
<title>node_0x55e5c0005ec0</title>
<ellipse fill="#ccffff" stroke="black" cx="578.48" cy="-581.69" rx="18" ry="18"/>
<text text-anchor="middle" x="578.48" y="-577.99" font-family="Times,serif" font-size="14.00">y</text>
</g>
<!-- node_0x55e5c0005ef0&#45;&gt;node_0x55e5c0005ec0 -->
<g id="edge18" class="edge">
<title>node_0x55e5c0005ef0&#45;&gt;node_0x55e5c0005ec0</title>
<path fill="none" stroke="black" d="M557.75,-644.59C561.31,-633.94 565.84,-620.44 569.75,-608.76"/>
<polygon fill="black" stroke="black" points="573.13,-609.69 572.99,-599.09 566.49,-607.46 573.13,-609.69"/>
</g>
<!-- node_0x55e5c00062b0 -->
<g id="node21" class="node">
<title>node_0x55e5c00062b0</title>
<polygon fill="#ccccff" stroke="black" points="958.85,-1032.13 1046.48,-1019.69 1134.12,-1032.13 1134.04,-1052.25 958.93,-1052.25 958.85,-1032.13"/>
<text text-anchor="middle" x="1046.48" y="-1033.99" font-family="Times,serif" font-size="14.00">FUNC_DECL</text>
</g>
<!-- node_0x55e5c00062e0&#45;&gt;node_0x55e5c00062b0 -->
<g id="edge20" class="edge">
<title>node_0x55e5c00062e0&#45;&gt;node_0x55e5c00062b0</title>
<path fill="none" stroke="black" d="M1046.48,-1096.01C1046.48,-1085.65 1046.48,-1073.29 1046.48,-1062.7"/>
<polygon fill="black" stroke="black" points="1049.98,-1062.47 1046.48,-1052.47 1042.98,-1062.47 1049.98,-1062.47"/>
</g>
<!-- node_0x55e5c0006820 -->
<g id="node37" class="node">
<title>node_0x55e5c0006820</title>
<polygon fill="#ffcccc" stroke="black" points="1465.48,-1030.6 1492.48,-1014.74 1519.48,-1030.6 1519.46,-1056.26 1465.51,-1056.26 1465.48,-1030.6"/>
<text text-anchor="middle" x="1492.48" y="-1033.89" font-family="Times,serif" font-size="16.00">;</text>
</g>
<!-- node_0x55e5c00062e0&#45;&gt;node_0x55e5c0006820 -->
<g id="edge36" class="edge">
<title>node_0x55e5c00062e0&#45;&gt;node_0x55e5c0006820</title>
<path fill="none" stroke="black" d="M1073.71,-1113.29C1150.31,-1099.64 1367.79,-1060.9 1455.32,-1045.31"/>
<polygon fill="black" stroke="black" points="1456.1,-1048.73 1465.33,-1043.53 1454.87,-1041.83 1456.1,-1048.73"/>
</g>
<!-- node_0x55e5c00060d0 -->
<g id="node22" class="node">
<title>node_0x55e5c00060d0</title>
<polygon fill="#ccccff" stroke="black" points="896.17,-942.85 981.48,-930.42 1066.8,-942.85 1066.72,-962.98 896.25,-962.98 896.17,-942.85"/>
<text text-anchor="middle" x="981.48" y="-944.72" font-family="Times,serif" font-size="14.00">FUNC_INFO</text>
</g>
<!-- node_0x55e5c00062b0&#45;&gt;node_0x55e5c00060d0 -->
<g id="edge21" class="edge">
<title>node_0x55e5c00062b0&#45;&gt;node_0x55e5c00060d0</title>
<path fill="none" stroke="black" d="M1034.86,-1021.09C1024.51,-1007.19 1009.26,-986.71 997.7,-971.19"/>
<polygon fill="black" stroke="black" points="1000.5,-969.09 991.72,-963.16 994.89,-973.27 1000.5,-969.09"/>
</g>
<!-- node_0x55e5c0006100 -->
<g id="node28" class="node">
<title>node_0x55e5c0006100</title>
<polygon fill="#ffcccc" stroke="black" points="1084.48,-941.32 1111.48,-925.47 1138.48,-941.32 1138.46,-966.99 1084.51,-966.99 1084.48,-941.32"/>
<text text-anchor="middle" x="1111.48" y="-944.62" font-family="Times,serif" font-size="16.00">{</text>
</g>
<!-- node_0x55e5c00062b0&#45;&gt;node_0x55e5c0006100 -->
<g id="edge27" class="edge">
<title>node_0x55e5c00062b0&#45;&gt;node_0x55e5c0006100</title>
<path fill="none" stroke="black" d="M1058.1,-1021.09C1067.51,-1008.46 1080.95,-990.41 1091.99,-975.58"/>
<polygon fill="black" stroke="black" points="1095,-977.4 1098.17,-967.29 1089.39,-973.22 1095,-977.4"/>
</g>
<!-- node_0x55e5c0006010 -->
<g id="node23" class="node">
<title>node_0x55e5c0006010</title>
<polygon fill="#ccccff" stroke="black" points="732.29,-851.61 850.48,-839.17 968.68,-851.61 968.56,-871.73 732.4,-871.73 732.29,-851.61"/>
<text text-anchor="middle" x="850.48" y="-853.47" font-family="Times,serif" font-size="14.00">FUNC_ARG_DECL</text>
</g>
<!-- node_0x55e5c00060d0&#45;&gt;node_0x55e5c0006010 -->
<g id="edge22" class="edge">
<title>node_0x55e5c00060d0&#45;&gt;node_0x55e5c0006010</title>
<path fill="none" stroke="black" d="M960.73,-933.28C938.75,-918.31 903.91,-894.57 879.28,-877.79"/>
<polygon fill="black" stroke="black" points="880.95,-874.69 870.71,-871.95 877.01,-880.48 880.95,-874.69"/>
</g>
<!-- node_0x55e5c0005fe0 -->
<g id="node27" class="node">
<title>node_0x55e5c0005fe0</title>
<ellipse fill="#ccffff" stroke="black" cx="1011.48" cy="-857.17" rx="24.9" ry="24.9"/>
<text text-anchor="middle" x="1011.48" y="-853.47" font-family="Times,serif" font-size="14.00">val</text>
</g>
<!-- node_0x55e5c00060d0&#45;&gt;node_0x55e5c0005fe0 -->
<g id="edge26" class="edge">
<title>node_0x55e5c00060d0&#45;&gt;node_0x55e5c0005fe0</title>
<path fill="none" stroke="black" d="M986.99,-931.05C990.8,-919.71 996,-904.24 1000.63,-890.47"/>
<polygon fill="black" stroke="black" points="1004,-891.42 1003.87,-880.82 997.37,-889.19 1004,-891.42"/>
</g>
<!-- node_0x55e5c0006070 -->
<g id="node24" class="node">
<title>node_0x55e5c0006070</title>
<polygon fill="#ccccff" stroke="black" points="607.02,-757.11 674.48,-744.68 741.95,-757.11 741.89,-777.24 607.08,-777.24 607.02,-757.11"/>
<text text-anchor="middle" x="674.48" y="-758.98" font-family="Times,serif" font-size="14.00">VAR_DEF</text>
</g>
<!-- node_0x55e5c0006010&#45;&gt;node_0x55e5c0006070 -->
<g id="edge23" class="edge">
<title>node_0x55e5c0006010&#45;&gt;node_0x55e5c0006070</title>
<path fill="none" stroke="black" d="M823.37,-841.92C792.79,-825.85 742.96,-799.66 709.46,-782.06"/>
<polygon fill="black" stroke="black" points="710.96,-778.89 700.48,-777.34 707.7,-785.09 710.96,-778.89"/>
</g>
<!-- node_0x55e5c00060a0 -->
<g id="node26" class="node">
<title>node_0x55e5c00060a0</title>
<polygon fill="#ccccff" stroke="black" points="760.29,-757.11 878.48,-744.68 996.68,-757.11 996.56,-777.24 760.4,-777.24 760.29,-757.11"/>
<text text-anchor="middle" x="878.48" y="-758.98" font-family="Times,serif" font-size="14.00">FUNC_ARG_DECL</text>
</g>
<!-- node_0x55e5c0006010&#45;&gt;node_0x55e5c00060a0 -->
<g id="edge25" class="edge">
<title>node_0x55e5c0006010&#45;&gt;node_0x55e5c00060a0</title>
<path fill="none" stroke="black" d="M855.49,-839.64C859.9,-825.06 866.38,-803.65 871.34,-787.27"/>
<polygon fill="black" stroke="black" points="874.79,-787.95 874.34,-777.36 868.09,-785.92 874.79,-787.95"/>
</g>
<!-- node_0x55e5c0006040 -->
<g id="node25" class="node">
<title>node_0x55e5c0006040</title>
<ellipse fill="#ccffff" stroke="black" cx="674.48" cy="-664.28" rx="18" ry="18"/>
<text text-anchor="middle" x="674.48" y="-660.58" font-family="Times,serif" font-size="14.00">x</text>
</g>
<!-- node_0x55e5c0006070&#45;&gt;node_0x55e5c0006040 -->
<g id="edge24" class="edge">
<title>node_0x55e5c0006070&#45;&gt;node_0x55e5c0006040</title>
<path fill="none" stroke="black" d="M674.48,-744.44C674.48,-730.05 674.48,-709.27 674.48,-692.61"/>
<polygon fill="black" stroke="black" points="677.98,-692.37 674.48,-682.37 670.98,-692.37 677.98,-692.37"/>
</g>
<!-- node_0x55e5c00061c0 -->
<g id="node29" class="node">
<title>node_0x55e5c00061c0</title>
<polygon fill="#ffcccc" stroke="black" points="1084.48,-850.08 1111.48,-834.22 1138.48,-850.08 1138.46,-875.74 1084.51,-875.74 1084.48,-850.08"/>
<text text-anchor="middle" x="1111.48" y="-853.37" font-family="Times,serif" font-size="16.00">;</text>
</g>
<!-- node_0x55e5c0006100&#45;&gt;node_0x55e5c00061c0 -->
<g id="edge28" class="edge">
<title>node_0x55e5c0006100&#45;&gt;node_0x55e5c00061c0</title>
<path fill="none" stroke="black" d="M1111.48,-925.36C1111.48,-913.42 1111.48,-898.56 1111.48,-885.85"/>
<polygon fill="black" stroke="black" points="1114.98,-885.8 1111.48,-875.8 1107.98,-885.8 1114.98,-885.8"/>
</g>
<!-- node_0x55e5c0006160 -->
<g id="node30" class="node">
<title>node_0x55e5c0006160</title>
<polygon fill="#ccccff" stroke="black" points="1015.02,-757.11 1082.48,-744.68 1149.95,-757.11 1149.89,-777.24 1015.08,-777.24 1015.02,-757.11"/>
<text text-anchor="middle" x="1082.48" y="-758.98" font-family="Times,serif" font-size="14.00">VAR_DEF</text>
</g>
<!-- node_0x55e5c00061c0&#45;&gt;node_0x55e5c0006160 -->
<g id="edge29" class="edge">
<title>node_0x55e5c00061c0&#45;&gt;node_0x55e5c0006160</title>
<path fill="none" stroke="black" d="M1105.61,-837.45C1101.07,-822.96 1094.75,-802.79 1089.86,-787.2"/>
<polygon fill="black" stroke="black" points="1093.08,-785.76 1086.74,-777.27 1086.4,-787.86 1093.08,-785.76"/>
</g>
<!-- node_0x55e5c0006280 -->
<g id="node33" class="node">
<title>node_0x55e5c0006280</title>
<polygon fill="#ffcccc" stroke="black" points="1167.48,-755.58 1194.48,-739.73 1221.48,-755.58 1221.46,-781.25 1167.51,-781.25 1167.48,-755.58"/>
<text text-anchor="middle" x="1194.48" y="-758.88" font-family="Times,serif" font-size="16.00">;</text>
</g>
<!-- node_0x55e5c00061c0&#45;&gt;node_0x55e5c0006280 -->
<g id="edge32" class="edge">
<title>node_0x55e5c00061c0&#45;&gt;node_0x55e5c0006280</title>
<path fill="none" stroke="black" d="M1124.45,-841.72C1136.99,-827.75 1156.26,-806.27 1171.42,-789.38"/>
<polygon fill="black" stroke="black" points="1174.41,-791.29 1178.48,-781.51 1169.2,-786.62 1174.41,-791.29"/>
</g>
<!-- node_0x55e5c0006130 -->
<g id="node31" class="node">
<title>node_0x55e5c0006130</title>
<ellipse fill="#ccffff" stroke="black" cx="1027.48" cy="-664.28" rx="18" ry="18"/>
<text text-anchor="middle" x="1027.48" y="-660.58" font-family="Times,serif" font-size="14.00">p</text>
</g>
<!-- node_0x55e5c0006160&#45;&gt;node_0x55e5c0006130 -->
<g id="edge30" class="edge">
<title>node_0x55e5c0006160&#45;&gt;node_0x55e5c0006130</title>
<path fill="none" stroke="black" d="M1073.65,-746.19C1064.85,-730.78 1051.24,-706.93 1041.08,-689.11"/>
<polygon fill="black" stroke="black" points="1044.11,-687.36 1036.12,-680.41 1038.03,-690.83 1044.11,-687.36"/>
</g>
<!-- node_0x55e5c0006190 -->
<g id="node32" class="node">
<title>node_0x55e5c0006190</title>
<ellipse fill="#ffffcc" stroke="black" cx="1092.48" cy="-664.28" rx="28.7" ry="28.7"/>
<text text-anchor="middle" x="1092.48" y="-660.58" font-family="Times,serif" font-size="14.00">700</text>
</g>
<!-- node_0x55e5c0006160&#45;&gt;node_0x55e5c0006190 -->
<g id="edge31" class="edge">
<title>node_0x55e5c0006160&#45;&gt;node_0x55e5c0006190</title>
<path fill="none" stroke="black" d="M1084.23,-744.89C1085.42,-733.34 1087.06,-717.54 1088.57,-703.05"/>
<polygon fill="black" stroke="black" points="1092.08,-703.12 1089.63,-692.82 1085.11,-702.4 1092.08,-703.12"/>
</g>
<!-- node_0x55e5c0006250 -->
<g id="node34" class="node">
<title>node_0x55e5c0006250</title>
<polygon fill="#ccccff" stroke="black" points="1148.9,-658.72 1194.48,-646.28 1240.07,-658.72 1240.03,-678.84 1148.94,-678.84 1148.9,-658.72"/>
<text text-anchor="middle" x="1194.48" y="-660.58" font-family="Times,serif" font-size="14.00">EXPR</text>
</g>
<!-- node_0x55e5c0006280&#45;&gt;node_0x55e5c0006250 -->
<g id="edge33" class="edge">
<title>node_0x55e5c0006280&#45;&gt;node_0x55e5c0006250</title>
<path fill="none" stroke="black" d="M1194.48,-739.8C1194.48,-724.78 1194.48,-704.85 1194.48,-689.37"/>
<polygon fill="black" stroke="black" points="1197.98,-689.03 1194.48,-679.03 1190.98,-689.03 1197.98,-689.03"/>
</g>
<!-- node_0x55e5c00061f0 -->
<g id="node35" class="node">
<title>node_0x55e5c00061f0</title>
<polygon fill="#ccccff" stroke="black" points="1156.96,-576.12 1194.48,-563.69 1232,-576.12 1231.97,-596.25 1157,-596.25 1156.96,-576.12"/>
<text text-anchor="middle" x="1194.48" y="-577.99" font-family="Times,serif" font-size="14.00">RET</text>
</g>
<!-- node_0x55e5c0006250&#45;&gt;node_0x55e5c00061f0 -->
<g id="edge34" class="edge">
<title>node_0x55e5c0006250&#45;&gt;node_0x55e5c00061f0</title>
<path fill="none" stroke="black" d="M1194.48,-646.19C1194.48,-634.68 1194.48,-619.34 1194.48,-606.62"/>
<polygon fill="black" stroke="black" points="1197.98,-606.28 1194.48,-596.28 1190.98,-606.28 1197.98,-606.28"/>
</g>
<!-- node_0x55e5c0006220 -->
<g id="node36" class="node">
<title>node_0x55e5c0006220</title>
<ellipse fill="#ffffcc" stroke="black" cx="1194.48" cy="-499.09" rx="28.7" ry="28.7"/>
<text text-anchor="middle" x="1194.48" y="-495.39" font-family="Times,serif" font-size="14.00">100</text>
</g>
<!-- node_0x55e5c00061f0&#45;&gt;node_0x55e5c0006220 -->
<g id="edge35" class="edge">
<title>node_0x55e5c00061f0&#45;&gt;node_0x55e5c0006220</title>
<path fill="none" stroke="black" d="M1194.48,-563.59C1194.48,-556.15 1194.48,-547.11 1194.48,-538.21"/>
<polygon fill="black" stroke="black" points="1197.98,-537.94 1194.48,-527.94 1190.98,-537.94 1197.98,-537.94"/>
</g>
<!-- node_0x55e5c00067f0 -->
<g id="node38" class="node">
<title>node_0x55e5c00067f0</title>
<polygon fill="#ccccff" stroke="black" points="1404.85,-942.85 1492.48,-930.42 1580.12,-942.85 1580.04,-962.98 1404.93,-962.98 1404.85,-942.85"/>
<text text-anchor="middle" x="1492.48" y="-944.72" font-family="Times,serif" font-size="14.00">FUNC_DECL</text>
</g>
<!-- node_0x55e5c0006820&#45;&gt;node_0x55e5c00067f0 -->
<g id="edge37" class="edge">
<title>node_0x55e5c0006820&#45;&gt;node_0x55e5c00067f0</title>
<path fill="none" stroke="black" d="M1492.48,-1014.67C1492.48,-1001.96 1492.48,-985.99 1492.48,-973.03"/>
<polygon fill="black" stroke="black" points="1495.98,-972.99 1492.48,-962.99 1488.98,-972.99 1495.98,-972.99"/>
</g>
<!-- node_0x55e5c00068e0 -->
<g id="node63" class="node">
<title>node_0x55e5c00068e0</title>
<polygon fill="#ffcccc" stroke="black" points="1642.48,-941.32 1669.48,-925.47 1696.48,-941.32 1696.46,-966.99 1642.51,-966.99 1642.48,-941.32"/>
<text text-anchor="middle" x="1669.48" y="-944.62" font-family="Times,serif" font-size="16.00">;</text>
</g>
<!-- node_0x55e5c0006820&#45;&gt;node_0x55e5c00068e0 -->
<g id="edge62" class="edge">
<title>node_0x55e5c0006820&#45;&gt;node_0x55e5c00068e0</title>
<path fill="none" stroke="black" d="M1513.13,-1026.51C1542.52,-1012.02 1596.84,-985.24 1633.07,-967.37"/>
<polygon fill="black" stroke="black" points="1634.9,-970.37 1642.32,-962.81 1631.8,-964.09 1634.9,-970.37"/>
</g>
<!-- node_0x55e5c0006370 -->
<g id="node39" class="node">
<title>node_0x55e5c0006370</title>
<polygon fill="#ccccff" stroke="black" points="1385.17,-851.61 1470.48,-839.17 1555.8,-851.61 1555.72,-871.73 1385.25,-871.73 1385.17,-851.61"/>
<text text-anchor="middle" x="1470.48" y="-853.47" font-family="Times,serif" font-size="14.00">FUNC_INFO</text>
</g>
<!-- node_0x55e5c00067f0&#45;&gt;node_0x55e5c0006370 -->
<g id="edge38" class="edge">
<title>node_0x55e5c00067f0&#45;&gt;node_0x55e5c0006370</title>
<path fill="none" stroke="black" d="M1488.35,-930.63C1484.95,-916.85 1480.09,-897.16 1476.3,-881.79"/>
<polygon fill="black" stroke="black" points="1479.67,-880.83 1473.88,-871.96 1472.88,-882.5 1479.67,-880.83"/>
</g>
<!-- node_0x55e5c00063a0 -->
<g id="node42" class="node">
<title>node_0x55e5c00063a0</title>
<polygon fill="#ffcccc" stroke="black" points="1573.48,-850.08 1600.48,-834.22 1627.48,-850.08 1627.46,-875.74 1573.51,-875.74 1573.48,-850.08"/>
<text text-anchor="middle" x="1600.48" y="-853.37" font-family="Times,serif" font-size="16.00">{</text>
</g>
<!-- node_0x55e5c00067f0&#45;&gt;node_0x55e5c00063a0 -->
<g id="edge41" class="edge">
<title>node_0x55e5c00067f0&#45;&gt;node_0x55e5c00063a0</title>
<path fill="none" stroke="black" d="M1510.32,-932.68C1526.78,-919.08 1551.54,-898.62 1570.95,-882.58"/>
<polygon fill="black" stroke="black" points="1573.42,-885.08 1578.9,-876.01 1568.96,-879.68 1573.42,-885.08"/>
</g>
<!-- node_0x55e5c0006340 -->
<g id="node40" class="node">
<title>node_0x55e5c0006340</title>
<polygon fill="#ccccff" stroke="black" points="1239.29,-757.11 1357.48,-744.68 1475.68,-757.11 1475.56,-777.24 1239.4,-777.24 1239.29,-757.11"/>
<text text-anchor="middle" x="1357.48" y="-758.98" font-family="Times,serif" font-size="14.00">FUNC_ARG_DECL</text>
</g>
<!-- node_0x55e5c0006370&#45;&gt;node_0x55e5c0006340 -->
<g id="edge39" class="edge">
<title>node_0x55e5c0006370&#45;&gt;node_0x55e5c0006340</title>
<path fill="none" stroke="black" d="M1452.83,-841.72C1433.87,-826.2 1403.59,-801.42 1382.26,-783.95"/>
<polygon fill="black" stroke="black" points="1384.23,-781.05 1374.28,-777.42 1379.8,-786.47 1384.23,-781.05"/>
</g>
<!-- node_0x55e5c0006310 -->
<g id="node41" class="node">
<title>node_0x55e5c0006310</title>
<ellipse fill="#ccffff" stroke="black" cx="1527.48" cy="-762.68" rx="33.6" ry="33.6"/>
<text text-anchor="middle" x="1527.48" y="-758.98" font-family="Times,serif" font-size="14.00">main</text>
</g>
<!-- node_0x55e5c0006370&#45;&gt;node_0x55e5c0006310 -->
<g id="edge40" class="edge">
<title>node_0x55e5c0006370&#45;&gt;node_0x55e5c0006310</title>
<path fill="none" stroke="black" d="M1480.15,-840.48C1486.87,-829.57 1496.13,-814.56 1504.67,-800.7"/>
<polygon fill="black" stroke="black" points="1507.88,-802.16 1510.15,-791.81 1501.92,-798.49 1507.88,-802.16"/>
</g>
<!-- node_0x55e5c0006730 -->
<g id="node43" class="node">
<title>node_0x55e5c0006730</title>
<polygon fill="#ffcccc" stroke="black" points="1579.48,-755.58 1606.48,-739.73 1633.48,-755.58 1633.46,-781.25 1579.51,-781.25 1579.48,-755.58"/>
<text text-anchor="middle" x="1606.48" y="-758.88" font-family="Times,serif" font-size="16.00">;</text>
</g>
<!-- node_0x55e5c00063a0&#45;&gt;node_0x55e5c0006730 -->
<g id="edge42" class="edge">
<title>node_0x55e5c00063a0&#45;&gt;node_0x55e5c0006730</title>
<path fill="none" stroke="black" d="M1601.87,-834.72C1602.71,-821.79 1603.79,-805.19 1604.69,-791.29"/>
<polygon fill="black" stroke="black" points="1608.19,-791.5 1605.34,-781.29 1601.2,-791.04 1608.19,-791.5"/>
</g>
<!-- node_0x55e5c0006700 -->
<g id="node44" class="node">
<title>node_0x55e5c0006700</title>
<polygon fill="#ccccff" stroke="black" points="1497.9,-658.72 1543.48,-646.28 1589.07,-658.72 1589.03,-678.84 1497.94,-678.84 1497.9,-658.72"/>
<text text-anchor="middle" x="1543.48" y="-660.58" font-family="Times,serif" font-size="14.00">EXPR</text>
</g>
<!-- node_0x55e5c0006730&#45;&gt;node_0x55e5c0006700 -->
<g id="edge43" class="edge">
<title>node_0x55e5c0006730&#45;&gt;node_0x55e5c0006700</title>
<path fill="none" stroke="black" d="M1596.08,-745.76C1585.72,-729.91 1569.74,-705.45 1558.1,-687.65"/>
<polygon fill="black" stroke="black" points="1560.87,-685.49 1552.47,-679.04 1555.01,-689.32 1560.87,-685.49"/>
</g>
<!-- node_0x55e5c00067c0 -->
<g id="node60" class="node">
<title>node_0x55e5c00067c0</title>
<polygon fill="#ffcccc" stroke="black" points="1642.48,-657.19 1669.48,-641.33 1696.48,-657.19 1696.46,-682.85 1642.51,-682.85 1642.48,-657.19"/>
<text text-anchor="middle" x="1669.48" y="-660.48" font-family="Times,serif" font-size="16.00">;</text>
</g>
<!-- node_0x55e5c0006730&#45;&gt;node_0x55e5c00067c0 -->
<g id="edge59" class="edge">
<title>node_0x55e5c0006730&#45;&gt;node_0x55e5c00067c0</title>
<path fill="none" stroke="black" d="M1616.89,-745.76C1626.53,-731.01 1641.05,-708.78 1652.4,-691.43"/>
<polygon fill="black" stroke="black" points="1655.46,-693.14 1658,-682.86 1649.6,-689.31 1655.46,-693.14"/>
</g>
<!-- node_0x55e5c00066d0 -->
<g id="node45" class="node">
<title>node_0x55e5c00066d0</title>
<polygon fill="#ccccff" stroke="black" points="1437.24,-576.12 1525.48,-563.69 1613.73,-576.12 1613.64,-596.25 1437.32,-596.25 1437.24,-576.12"/>
<text text-anchor="middle" x="1525.48" y="-577.99" font-family="Times,serif" font-size="14.00">ELEM_PUTN</text>
</g>
<!-- node_0x55e5c0006700&#45;&gt;node_0x55e5c00066d0 -->
<g id="edge44" class="edge">
<title>node_0x55e5c0006700&#45;&gt;node_0x55e5c00066d0</title>
<path fill="none" stroke="black" d="M1539.84,-646.97C1537.24,-635.33 1533.7,-619.49 1530.79,-606.44"/>
<polygon fill="black" stroke="black" points="1534.12,-605.29 1528.52,-596.29 1527.29,-606.82 1534.12,-605.29"/>
</g>
<!-- node_0x55e5c0006430 -->
<g id="node46" class="node">
<title>node_0x55e5c0006430</title>
<polygon fill="#ccccff" stroke="black" points="1430.17,-493.53 1515.48,-481.09 1600.8,-493.53 1600.72,-513.65 1430.25,-513.65 1430.17,-493.53"/>
<text text-anchor="middle" x="1515.48" y="-495.39" font-family="Times,serif" font-size="14.00">FUNC_CALL</text>
</g>
<!-- node_0x55e5c00066d0&#45;&gt;node_0x55e5c0006430 -->
<g id="edge45" class="edge">
<title>node_0x55e5c00066d0&#45;&gt;node_0x55e5c0006430</title>
<path fill="none" stroke="black" d="M1523.36,-563.59C1521.92,-551.97 1519.99,-536.44 1518.41,-523.64"/>
<polygon fill="black" stroke="black" points="1521.88,-523.18 1517.17,-513.69 1514.93,-524.04 1521.88,-523.18"/>
</g>
<!-- node_0x55e5c0006460 -->
<g id="node47" class="node">
<title>node_0x55e5c0006460</title>
<polygon fill="#ccccff" stroke="black" points="1317.61,-398.38 1433.48,-385.94 1549.36,-398.38 1549.25,-418.51 1317.72,-418.51 1317.61,-398.38"/>
<text text-anchor="middle" x="1433.48" y="-400.24" font-family="Times,serif" font-size="14.00">FUNC_ARG_CALL</text>
</g>
<!-- node_0x55e5c0006430&#45;&gt;node_0x55e5c0006460 -->
<g id="edge46" class="edge">
<title>node_0x55e5c0006430&#45;&gt;node_0x55e5c0006460</title>
<path fill="none" stroke="black" d="M1501.94,-482.71C1488.42,-467.34 1467.51,-443.6 1452.36,-426.39"/>
<polygon fill="black" stroke="black" points="1454.68,-423.72 1445.44,-418.53 1449.42,-428.35 1454.68,-423.72"/>
</g>
<!-- node_0x55e5c0006400 -->
<g id="node59" class="node">
<title>node_0x55e5c0006400</title>
<ellipse fill="#ccffff" stroke="black" cx="1597.48" cy="-403.94" rx="30.59" ry="30.59"/>
<text text-anchor="middle" x="1597.48" y="-400.24" font-family="Times,serif" font-size="14.00">sum</text>
</g>
<!-- node_0x55e5c0006430&#45;&gt;node_0x55e5c0006400 -->
<g id="edge58" class="edge">
<title>node_0x55e5c0006430&#45;&gt;node_0x55e5c0006400</title>
<path fill="none" stroke="black" d="M1529.02,-482.71C1540.44,-469.74 1557.11,-450.8 1571.14,-434.86"/>
<polygon fill="black" stroke="black" points="1573.8,-437.14 1577.78,-427.32 1568.55,-432.51 1573.8,-437.14"/>
</g>
<!-- node_0x55e5c00065e0 -->
<g id="node48" class="node">
<title>node_0x55e5c00065e0</title>
<polygon fill="#ccccff" stroke="black" points="1298.9,-313.83 1344.48,-301.4 1390.07,-313.83 1390.03,-333.96 1298.94,-333.96 1298.9,-313.83"/>
<text text-anchor="middle" x="1344.48" y="-315.7" font-family="Times,serif" font-size="14.00">EXPR</text>
</g>
<!-- node_0x55e5c0006460&#45;&gt;node_0x55e5c00065e0 -->
<g id="edge47" class="edge">
<title>node_0x55e5c0006460&#45;&gt;node_0x55e5c00065e0</title>
<path fill="none" stroke="black" d="M1416.74,-387.42C1402.68,-374.37 1382.45,-355.61 1366.98,-341.26"/>
<polygon fill="black" stroke="black" points="1369.09,-338.44 1359.37,-334.21 1364.33,-343.57 1369.09,-338.44"/>
</g>
<!-- node_0x55e5c0006610 -->
<g id="node55" class="node">
<title>node_0x55e5c0006610</title>
<polygon fill="#ccccff" stroke="black" points="1407.61,-313.83 1523.48,-301.4 1639.36,-313.83 1639.25,-333.96 1407.72,-333.96 1407.61,-313.83"/>
<text text-anchor="middle" x="1523.48" y="-315.7" font-family="Times,serif" font-size="14.00">FUNC_ARG_CALL</text>
</g>
<!-- node_0x55e5c0006460&#45;&gt;node_0x55e5c0006610 -->
<g id="edge54" class="edge">
<title>node_0x55e5c0006460&#45;&gt;node_0x55e5c0006610</title>
<path fill="none" stroke="black" d="M1450.41,-387.42C1464.63,-374.37 1485.09,-355.61 1500.74,-341.26"/>
<polygon fill="black" stroke="black" points="1503.42,-343.55 1508.43,-334.21 1498.69,-338.39 1503.42,-343.55"/>
</g>
<!-- node_0x55e5c00064f0 -->
<g id="node49" class="node">
<title>node_0x55e5c00064f0</title>
<polygon fill="#ccccff" stroke="black" points="1259.17,-241.83 1344.48,-229.4 1429.8,-241.83 1429.72,-261.96 1259.25,-261.96 1259.17,-241.83"/>
<text text-anchor="middle" x="1344.48" y="-243.7" font-family="Times,serif" font-size="14.00">FUNC_CALL</text>
</g>
<!-- node_0x55e5c00065e0&#45;&gt;node_0x55e5c00064f0 -->
<g id="edge48" class="edge">
<title>node_0x55e5c00065e0&#45;&gt;node_0x55e5c00064f0</title>
<path fill="none" stroke="black" d="M1344.48,-301.09C1344.48,-292.39 1344.48,-281.7 1344.48,-272.22"/>
<polygon fill="black" stroke="black" points="1347.98,-272.22 1344.48,-262.22 1340.98,-272.22 1347.98,-272.22"/>
</g>
<!-- node_0x55e5c0006520 -->
<g id="node50" class="node">
<title>node_0x55e5c0006520</title>
<polygon fill="#ccccff" stroke="black" points="1122.61,-163.14 1238.48,-150.7 1354.36,-163.14 1354.25,-183.26 1122.72,-183.26 1122.61,-163.14"/>
<text text-anchor="middle" x="1238.48" y="-165" font-family="Times,serif" font-size="14.00">FUNC_ARG_CALL</text>
</g>
<!-- node_0x55e5c00064f0&#45;&gt;node_0x55e5c0006520 -->
<g id="edge49" class="edge">
<title>node_0x55e5c00064f0&#45;&gt;node_0x55e5c0006520</title>
<path fill="none" stroke="black" d="M1324.55,-231.97C1307.95,-219.96 1284.15,-202.74 1265.79,-189.45"/>
<polygon fill="black" stroke="black" points="1267.42,-186.31 1257.26,-183.29 1263.31,-191.98 1267.42,-186.31"/>
</g>
<!-- node_0x55e5c00064c0 -->
<g id="node54" class="node">
<title>node_0x55e5c00064c0</title>
<ellipse fill="#ccffff" stroke="black" cx="1396.48" cy="-168.7" rx="24.9" ry="24.9"/>
<text text-anchor="middle" x="1396.48" y="-165" font-family="Times,serif" font-size="14.00">val</text>
</g>
<!-- node_0x55e5c00064f0&#45;&gt;node_0x55e5c00064c0 -->
<g id="edge53" class="edge">
<title>node_0x55e5c00064f0&#45;&gt;node_0x55e5c00064c0</title>
<path fill="none" stroke="black" d="M1355.01,-230.87C1361.38,-221.48 1369.69,-209.21 1377.21,-198.13"/>
<polygon fill="black" stroke="black" points="1380.29,-199.82 1383.01,-189.57 1374.5,-195.89 1380.29,-199.82"/>
</g>
<!-- node_0x55e5c0006580 -->
<g id="node51" class="node">
<title>node_0x55e5c0006580</title>
<polygon fill="#ccccff" stroke="black" points="1103.9,-84.44 1149.48,-72 1195.07,-84.44 1195.03,-104.56 1103.94,-104.56 1103.9,-84.44"/>
<text text-anchor="middle" x="1149.48" y="-86.3" font-family="Times,serif" font-size="14.00">EXPR</text>
</g>
<!-- node_0x55e5c0006520&#45;&gt;node_0x55e5c0006580 -->
<g id="edge50" class="edge">
<title>node_0x55e5c0006520&#45;&gt;node_0x55e5c0006580</title>
<path fill="none" stroke="black" d="M1220.9,-152.54C1207.22,-140.76 1188.11,-124.29 1173.1,-111.35"/>
<polygon fill="black" stroke="black" points="1175.1,-108.46 1165.24,-104.58 1170.53,-113.76 1175.1,-108.46"/>
</g>
<!-- node_0x55e5c00065b0 -->
<g id="node53" class="node">
<title>node_0x55e5c00065b0</title>
<polygon fill="#ccccff" stroke="black" points="1212.61,-84.44 1328.48,-72 1444.36,-84.44 1444.25,-104.56 1212.72,-104.56 1212.61,-84.44"/>
<text text-anchor="middle" x="1328.48" y="-86.3" font-family="Times,serif" font-size="14.00">FUNC_ARG_CALL</text>
</g>
<!-- node_0x55e5c0006520&#45;&gt;node_0x55e5c00065b0 -->
<g id="edge52" class="edge">
<title>node_0x55e5c0006520&#45;&gt;node_0x55e5c00065b0</title>
<path fill="none" stroke="black" d="M1256.26,-152.54C1270.1,-140.76 1289.42,-124.29 1304.6,-111.35"/>
<polygon fill="black" stroke="black" points="1307.21,-113.73 1312.55,-104.58 1302.67,-108.4 1307.21,-113.73"/>
</g>
<!-- node_0x55e5c0006550 -->
<g id="node52" class="node">
<title>node_0x55e5c0006550</title>
<ellipse fill="#ffffcc" stroke="black" cx="1149.48" cy="-18" rx="18" ry="18"/>
<text text-anchor="middle" x="1149.48" y="-14.3" font-family="Times,serif" font-size="14.00">2</text>
</g>
<!-- node_0x55e5c0006580&#45;&gt;node_0x55e5c0006550 -->
<g id="edge51" class="edge">
<title>node_0x55e5c0006580&#45;&gt;node_0x55e5c0006550</title>
<path fill="none" stroke="black" d="M1149.48,-71.7C1149.48,-63.98 1149.48,-54.71 1149.48,-46.11"/>
<polygon fill="black" stroke="black" points="1152.98,-46.1 1149.48,-36.1 1145.98,-46.1 1152.98,-46.1"/>
</g>
<!-- node_0x55e5c0006670 -->
<g id="node56" class="node">
<title>node_0x55e5c0006670</title>
<polygon fill="#ccccff" stroke="black" points="1462.9,-241.83 1508.48,-229.4 1554.07,-241.83 1554.03,-261.96 1462.94,-261.96 1462.9,-241.83"/>
<text text-anchor="middle" x="1508.48" y="-243.7" font-family="Times,serif" font-size="14.00">EXPR</text>
</g>
<!-- node_0x55e5c0006610&#45;&gt;node_0x55e5c0006670 -->
<g id="edge55" class="edge">
<title>node_0x55e5c0006610&#45;&gt;node_0x55e5c0006670</title>
<path fill="none" stroke="black" d="M1519.85,-301.45C1517.97,-292.66 1515.63,-281.76 1513.57,-272.14"/>
<polygon fill="black" stroke="black" points="1516.99,-271.41 1511.48,-262.36 1510.15,-272.87 1516.99,-271.41"/>
</g>
<!-- node_0x55e5c00066a0 -->
<g id="node58" class="node">
<title>node_0x55e5c00066a0</title>
<polygon fill="#ccccff" stroke="black" points="1571.61,-241.83 1687.48,-229.4 1803.36,-241.83 1803.25,-261.96 1571.72,-261.96 1571.61,-241.83"/>
<text text-anchor="middle" x="1687.48" y="-243.7" font-family="Times,serif" font-size="14.00">FUNC_ARG_CALL</text>
</g>
<!-- node_0x55e5c0006610&#45;&gt;node_0x55e5c00066a0 -->
<g id="edge57" class="edge">
<title>node_0x55e5c0006610&#45;&gt;node_0x55e5c00066a0</title>
<path fill="none" stroke="black" d="M1555.49,-304.73C1581.34,-293.7 1617.91,-278.09 1646,-266.1"/>
<polygon fill="black" stroke="black" points="1647.73,-269.17 1655.55,-262.02 1644.98,-262.73 1647.73,-269.17"/>
</g>
<!-- node_0x55e5c0006640 -->
<g id="node57" class="node">
<title>node_0x55e5c0006640</title>
<ellipse fill="#ffffcc" stroke="black" cx="1508.48" cy="-168.7" rx="18" ry="18"/>
<text text-anchor="middle" x="1508.48" y="-165" font-family="Times,serif" font-size="14.00">1</text>
</g>
<!-- node_0x55e5c0006670&#45;&gt;node_0x55e5c0006640 -->
<g id="edge56" class="edge">
<title>node_0x55e5c0006670&#45;&gt;node_0x55e5c0006640</title>
<path fill="none" stroke="black" d="M1508.48,-229.37C1508.48,-219.91 1508.48,-207.9 1508.48,-197.14"/>
<polygon fill="black" stroke="black" points="1511.98,-196.94 1508.48,-186.94 1504.98,-196.94 1511.98,-196.94"/>
</g>
<!-- node_0x55e5c0006790 -->
<g id="node61" class="node">
<title>node_0x55e5c0006790</title>
<polygon fill="#ccccff" stroke="black" points="1641.9,-576.12 1687.48,-563.69 1733.07,-576.12 1733.03,-596.25 1641.94,-596.25 1641.9,-576.12"/>
<text text-anchor="middle" x="1687.48" y="-577.99" font-family="Times,serif" font-size="14.00">EXPR</text>
</g>
<!-- node_0x55e5c00067c0&#45;&gt;node_0x55e5c0006790 -->
<g id="edge60" class="edge">
<title>node_0x55e5c00067c0&#45;&gt;node_0x55e5c0006790</title>
<path fill="none" stroke="black" d="M1673.84,-643.77C1676.33,-632.64 1679.46,-618.6 1682.1,-606.79"/>
<polygon fill="black" stroke="black" points="1685.59,-607.24 1684.35,-596.71 1678.75,-605.71 1685.59,-607.24"/>
</g>
<!-- node_0x55e5c0006760 -->
<g id="node62" class="node">
<title>node_0x55e5c0006760</title>
<polygon fill="#ccccff" stroke="black" points="1619.24,-493.53 1707.48,-481.09 1795.73,-493.53 1795.64,-513.65 1619.32,-513.65 1619.24,-493.53"/>
<text text-anchor="middle" x="1707.48" y="-495.39" font-family="Times,serif" font-size="14.00">ELEM_PUTN</text>
</g>
<!-- node_0x55e5c0006790&#45;&gt;node_0x55e5c0006760 -->
<g id="edge61" class="edge">
<title>node_0x55e5c0006790&#45;&gt;node_0x55e5c0006760</title>
<path fill="none" stroke="black" d="M1691.43,-564.76C1694.35,-553.03 1698.35,-536.89 1701.63,-523.67"/>
<polygon fill="black" stroke="black" points="1705.06,-524.38 1704.07,-513.83 1698.27,-522.69 1705.06,-524.38"/>
</g>
<!-- node_0x55e5c00068b0 -->
<g id="node64" class="node">
<title>node_0x55e5c00068b0</title>
<polygon fill="#ccccff" stroke="black" points="1645.9,-851.61 1691.48,-839.17 1737.07,-851.61 1737.03,-871.73 1645.94,-871.73 1645.9,-851.61"/>
<text text-anchor="middle" x="1691.48" y="-853.47" font-family="Times,serif" font-size="14.00">EXPR</text>
</g>
<!-- node_0x55e5c00068e0&#45;&gt;node_0x55e5c00068b0 -->
<g id="edge63" class="edge">
<title>node_0x55e5c00068e0&#45;&gt;node_0x55e5c00068b0</title>
<path fill="none" stroke="black" d="M1674.26,-928.05C1677.61,-914.44 1682.12,-896.15 1685.68,-881.7"/>
<polygon fill="black" stroke="black" points="1689.09,-882.52 1688.08,-871.97 1682.29,-880.84 1689.09,-882.52"/>
</g>
<!-- node_0x55e5c0006880 -->
<g id="node65" class="node">
<title>node_0x55e5c0006880</title>
<ellipse fill="#ccffff" stroke="black" cx="1691.48" cy="-762.68" rx="33.6" ry="33.6"/>
<text text-anchor="middle" x="1691.48" y="-758.98" font-family="Times,serif" font-size="14.00">main</text>
</g>
<!-- node_0x55e5c00068b0&#45;&gt;node_0x55e5c0006880 -->
<g id="edge64" class="edge">
<title>node_0x55e5c00068b0&#45;&gt;node_0x55e5c0006880</title>
<path fill="none" stroke="black" d="M1691.48,-838.77C1691.48,-829.72 1691.48,-818.21 1691.48,-806.93"/>
<polygon fill="black" stroke="black" points="1694.98,-806.72 1691.48,-796.72 1687.98,-806.72 1694.98,-806.72"/>
</g>
</g>
</svg>
