<?xml version="1.0" encoding="UTF-8" standalone="no"?>
<!DOCTYPE svg PUBLIC "-//W3C//DTD SVG 1.1//EN"
 "http://www.w3.org/Graphics/SVG/1.1/DTD/svg11.dtd">
<!-- Generated by graphviz version 2.43.0 (0)
 -->
<!-- Title: list Pages: 1 -->
<svg width="348pt" height="285pt"
 viewBox="0.00 0.00 348.48 285.09" xmlns="http://www.w3.org/2000/svg" xmlns:xlink="http://www.w3.org/1999/xlink">
<g id="graph0" class="graph" transform="scale(1 1) rotate(0) translate(4 281.09)">
<title>list</title>
<polygon fill="white" stroke="transparent" points="-4,4 -4,-281.09 344.48,-281.09 344.48,4 -4,4"/>
<!-- node_0x563f1a88a570 -->
<g id="node1" class="node">
<title>node_0x563f1a88a570</title>
<polygon fill="#ccccff" stroke="black" points="131.48,-253.53 216.79,-241.09 302.11,-253.53 302.03,-273.66 131.56,-273.66 131.48,-253.53"/>
<text text-anchor="middle" x="216.79" y="-255.39" font-family="Times,serif" font-size="14.00">FUNC_CALL</text>
</g>
<!-- node_0x563f1a88a5a0 -->
<g id="node2" class="node">
<title>node_0x563f1a88a5a0</title>
<polygon fill="#ccccff" stroke="black" points="18.92,-168.98 134.79,-156.55 250.66,-168.98 250.56,-189.11 19.03,-189.11 18.92,-168.98"/>
<text text-anchor="middle" x="134.79" y="-170.85" font-family="Times,serif" font-size="14.00">FUNC_ARG_CALL</text>
</g>
<!-- node_0x563f1a88a570&#45;&gt;node_0x563f1a88a5a0 -->
<g id="edge1" class="edge">
<title>node_0x563f1a88a570&#45;&gt;node_0x563f1a88a5a0</title>
<path fill="none" stroke="black" d="M201.75,-242.95C188.76,-229.87 169.86,-210.85 155.45,-196.34"/>
<polygon fill="black" stroke="black" points="157.91,-193.85 148.38,-189.22 152.94,-198.78 157.91,-193.85"/>
</g>
<!-- node_0x563f1a88a540 -->
<g id="node6" class="node">
<title>node_0x563f1a88a540</title>
<ellipse fill="#ccffff" stroke="black" cx="298.79" cy="-174.55" rx="30.59" ry="30.59"/>
<text text-anchor="middle" x="298.79" y="-170.85" font-family="Times,serif" font-size="14.00">sum</text>
</g>
<!-- node_0x563f1a88a570&#45;&gt;node_0x563f1a88a540 -->
<g id="edge5" class="edge">
<title>node_0x563f1a88a570&#45;&gt;node_0x563f1a88a540</title>
<path fill="none" stroke="black" d="M231.83,-242.95C242.58,-232.14 257.36,-217.25 270.31,-204.22"/>
<polygon fill="black" stroke="black" points="273.11,-206.37 277.67,-196.81 268.14,-201.44 273.11,-206.37"/>
</g>
<!-- node_0x563f1a88a600 -->
<g id="node3" class="node">
<title>node_0x563f1a88a600</title>
<polygon fill="#ccccff" stroke="black" points="0.21,-84.44 45.79,-72 91.38,-84.44 91.34,-104.56 0.25,-104.56 0.21,-84.44"/>
<text text-anchor="middle" x="45.79" y="-86.3" font-family="Times,serif" font-size="14.00">EXPR</text>
</g>
<!-- node_0x563f1a88a5a0&#45;&gt;node_0x563f1a88a600 -->
<g id="edge2" class="edge">
<title>node_0x563f1a88a5a0&#45;&gt;node_0x563f1a88a600</title>
<path fill="none" stroke="black" d="M118.05,-158.02C103.99,-144.98 83.76,-126.22 68.29,-111.86"/>
<polygon fill="black" stroke="black" points="70.39,-109.04 60.68,-104.81 65.63,-114.18 70.39,-109.04"/>
</g>
<!-- node_0x563f1a88a630 -->
<g id="node5" class="node">
<title>node_0x563f1a88a630</title>
<polygon fill="#ccccff" stroke="black" points="108.92,-84.44 224.79,-72 340.66,-84.44 340.56,-104.56 109.03,-104.56 108.92,-84.44"/>
<text text-anchor="middle" x="224.79" y="-86.3" font-family="Times,serif" font-size="14.00">FUNC_ARG_CALL</text>
</g>
<!-- node_0x563f1a88a5a0&#45;&gt;node_0x563f1a88a630 -->
<g id="edge4" class="edge">
<title>node_0x563f1a88a5a0&#45;&gt;node_0x563f1a88a630</title>
<path fill="none" stroke="black" d="M151.72,-158.02C165.94,-144.98 186.39,-126.22 202.05,-111.86"/>
<polygon fill="black" stroke="black" points="204.73,-114.15 209.73,-104.81 200,-108.99 204.73,-114.15"/>
</g>
<!-- node_0x563f1a88a5d0 -->
<g id="node4" class="node">
<title>node_0x563f1a88a5d0</title>
<ellipse fill="#ccffff" stroke="black" cx="45.79" cy="-18" rx="18" ry="18"/>
<text text-anchor="middle" x="45.79" y="-14.3" font-family="Times,serif" font-size="14.00">a</text>
</g>
<!-- node_0x563f1a88a600&#45;&gt;node_0x563f1a88a5d0 -->
<g id="edge3" class="edge">
<title>node_0x563f1a88a600&#45;&gt;node_0x563f1a88a5d0</title>
<path fill="none" stroke="black" d="M45.79,-71.7C45.79,-63.98 45.79,-54.71 45.79,-46.11"/>
<polygon fill="black" stroke="black" points="49.29,-46.1 45.79,-36.1 42.29,-46.1 49.29,-46.1"/>
</g>
</g>
</svg>
